<svg width="31" height="31" viewBox="0 0 31 31" fill="none" xmlns="http://www.w3.org/2000/svg">
<path d="M24.9489 6.05122C19.7302 0.832535 11.2704 0.832535 6.05171 6.05122C0.833023 11.2699 0.833023 19.7297 6.05171 24.9484C11.2704 30.1671 19.7302 30.1671 24.9489 24.9484C30.1676 19.7297 30.1665 11.2699 24.9489 6.05122ZM21.169 19.657C21.3695 19.8575 21.4821 20.1293 21.4821 20.4128C21.4821 20.6962 21.3695 20.9681 21.169 21.1685C20.9686 21.369 20.6967 21.4816 20.4133 21.4816C20.1298 21.4816 19.8579 21.369 19.6575 21.1685L15.5003 17.0113L11.3431 21.1685C11.244 21.2681 11.1263 21.3472 10.9966 21.4011C10.8669 21.4551 10.7278 21.4828 10.5873 21.4828C10.4469 21.4828 10.3078 21.4551 10.1781 21.4011C10.0484 21.3472 9.93062 21.2681 9.83157 21.1685C9.73222 21.0693 9.6534 20.9515 9.59962 20.8219C9.54584 20.6922 9.51815 20.5532 9.51815 20.4128C9.51815 20.2724 9.54584 20.1334 9.59962 20.0037C9.6534 19.874 9.73222 19.7562 9.83157 19.657L13.9888 15.4998L9.83157 11.3426C9.63113 11.1422 9.51853 10.8703 9.51853 10.5868C9.51853 10.3034 9.63113 10.0315 9.83157 9.83109C10.032 9.63065 10.3039 9.51804 10.5873 9.51804C10.8708 9.51804 11.1427 9.63065 11.3431 9.83109L15.5003 13.9883L19.6575 9.83109C19.7568 9.73184 19.8746 9.65311 20.0043 9.5994C20.1339 9.54569 20.2729 9.51804 20.4133 9.51804C20.5536 9.51804 20.6926 9.54569 20.8223 9.5994C20.952 9.65311 21.0698 9.73184 21.169 9.83109C21.2683 9.93033 21.347 10.0482 21.4007 10.1778C21.4544 10.3075 21.4821 10.4465 21.4821 10.5868C21.4821 10.7272 21.4544 10.8662 21.4007 10.9959C21.347 11.1255 21.2683 11.2434 21.169 11.3426L17.0118 15.4998L21.169 19.657Z" fill="#F24236"/>
</svg>
