<svg width="32" height="33" viewBox="0 0 32 33" fill="none" xmlns="http://www.w3.org/2000/svg">
<path d="M16.0003 29.8332C18.6374 29.8332 21.2153 29.0512 23.4079 27.5861C25.6006 26.121 27.3096 24.0386 28.3187 21.6023C29.3279 19.1659 29.5919 16.4851 29.0775 13.8986C28.563 11.3122 27.2931 8.93645 25.4284 7.07175C23.5637 5.20705 21.1879 3.93718 18.6015 3.42271C16.0151 2.90824 13.3342 3.17228 10.8979 4.18145C8.46153 5.19062 6.37915 6.89958 4.91406 9.09224C3.44898 11.2849 2.66699 13.8628 2.66699 16.4998C2.66699 20.0361 4.07175 23.4274 6.57223 25.9279C7.81035 27.166 9.2802 28.1482 10.8979 28.8182C12.5156 29.4883 14.2494 29.8332 16.0003 29.8332ZM11.0577 15.5572C11.1814 15.4333 11.3284 15.3351 11.4901 15.268C11.6519 15.201 11.8252 15.1665 12.0003 15.1665C12.1754 15.1665 12.3488 15.201 12.5105 15.268C12.6723 15.3351 12.8192 15.4333 12.943 15.5572L14.667 17.281L19.0577 12.8905C19.3091 12.6476 19.6459 12.5132 19.9955 12.5163C20.3451 12.5193 20.6795 12.6595 20.9267 12.9068C21.174 13.154 21.3142 13.4884 21.3172 13.838C21.3203 14.1876 21.1859 14.5244 20.943 14.7758L15.6097 20.1092C15.4859 20.233 15.3389 20.3313 15.1772 20.3983C15.0154 20.4653 14.8421 20.4998 14.667 20.4998C14.4919 20.4998 14.3185 20.4653 14.1568 20.3983C13.995 20.3313 13.8481 20.233 13.7243 20.1092L11.0577 17.4425C10.9338 17.3188 10.8355 17.1718 10.7685 17.0101C10.7015 16.8483 10.6669 16.6749 10.6669 16.4998C10.6669 16.3248 10.7015 16.1514 10.7685 15.9896C10.8355 15.8279 10.9338 15.6809 11.0577 15.5572Z" fill="#27AE60"/>
</svg>
