<svg width="55" height="52" viewBox="0 0 55 52" fill="none" xmlns="http://www.w3.org/2000/svg">
<path d="M22.1247 43H14.3001C14.1132 43 13.9585 42.8453 13.9585 42.6584V34.4729C13.9585 33.5254 14.7255 32.752 15.6794 32.752H22.0667C22.086 43.2191 22.0087 42.6971 22.1247 43ZM32.2438 25.2947V42.6584C32.2438 42.8453 32.0892 43 31.9022 43H23.0979C22.911 43 22.7563 42.8453 22.7563 42.6584V25.2947C22.7563 24.3473 23.5233 23.5738 24.4772 23.5738H30.5294C31.4769 23.5738 32.2438 24.3473 32.2438 25.2947ZM41.0417 30.6766V42.6584C41.0417 42.8453 40.887 43 40.7001 43H32.869C32.9851 42.6971 32.9077 43.3932 32.9335 28.9557H39.3272C40.2683 28.9557 41.0417 29.7291 41.0417 30.6766ZM30.7614 16.1746C30.6776 16.252 30.639 16.368 30.6647 16.4775L31.0192 18.5465C31.0901 18.9396 30.929 19.3264 30.6132 19.5584C30.2716 19.8033 29.8462 19.8098 29.5239 19.6357L27.6612 18.6625C27.5646 18.6109 27.4421 18.6109 27.339 18.6625L25.4763 19.6357C25.1282 19.8227 24.7157 19.7904 24.387 19.5584C24.0647 19.3264 23.9101 18.9396 23.981 18.5465L24.3354 16.4775C24.3548 16.368 24.3161 16.252 24.2388 16.1746L22.737 14.7051C22.4534 14.4279 22.3567 14.0219 22.4728 13.648C22.5952 13.2678 22.9175 13.0035 23.3042 12.9455L25.386 12.649C25.502 12.6297 25.5987 12.5588 25.6438 12.4621L26.5784 10.5801C26.7524 10.2191 27.1069 10 27.5001 10C27.8933 10 28.2478 10.2191 28.4218 10.5736L29.3499 12.4557C29.4015 12.5523 29.4981 12.6297 29.6077 12.6426L31.6896 12.9391C32.0827 12.9971 32.3985 13.2678 32.521 13.6416C32.6435 14.0154 32.5403 14.4215 32.2567 14.6986L30.7614 16.1746Z" fill="#C2EFB3"/>
</svg>
