<svg width="55" height="52" viewBox="0 0 55 52" fill="none" xmlns="http://www.w3.org/2000/svg">
<path d="M26.9805 24.905C26.1032 24.905 25.3855 25.6227 25.3855 26.5C25.3855 27.3773 26.1032 28.095 26.9805 28.095C27.4035 28.095 27.8092 27.927 28.1083 27.6278C28.4074 27.3287 28.5755 26.923 28.5755 26.5C28.5755 26.077 28.4074 25.6713 28.1083 25.3722C27.8092 25.073 27.4035 24.905 26.9805 24.905ZM26.9805 12C18.9692 12 12.4805 18.4888 12.4805 26.5C12.4805 34.504 18.9692 41 26.9805 41C34.9917 41 41.4805 34.504 41.4805 26.5C41.4805 18.4888 34.9917 12 26.9805 12ZM30.156 29.6755C29.3119 30.5195 19 35.9195 18.2805 35.2C17.5609 34.4805 23.1099 24.0195 23.805 23.3245C24.5 22.6295 34.8609 17.1 35.6805 17.8C36.5 18.5 31 28.8315 30.156 29.6755Z" fill="#BDBDBD"/>
</svg>
