<svg width="15" height="15" viewBox="0 0 15 15" fill="none" xmlns="http://www.w3.org/2000/svg">
<path d="M6.15529 9.71864C7.05508 9.64613 7.95901 9.64613 8.85881 9.71864C9.34879 9.7472 9.83645 9.8085 10.3187 9.90214C11.3623 10.1134 12.0436 10.4582 12.3355 11.0142C12.5548 11.4482 12.5548 11.9648 12.3355 12.3988C12.0436 12.9548 11.3893 13.3218 10.3079 13.5109C9.82602 13.6081 9.33825 13.6712 8.84799 13.7C8.3938 13.75 7.93961 13.75 7.48001 13.75H6.65274C6.47971 13.7278 6.31209 13.7166 6.14988 13.7166C5.65961 13.6914 5.17173 13.6301 4.68998 13.5331C3.64643 13.333 2.96514 12.9771 2.67316 12.421C2.56044 12.2056 2.50102 11.965 2.50007 11.7204C2.49778 11.4743 2.55541 11.2315 2.66775 11.0142C2.95433 10.4582 3.63561 10.0968 4.68998 9.90214C5.17385 9.80716 5.6634 9.74585 6.15529 9.71864ZM7.50164 1.25C9.31428 1.25 10.7837 2.76114 10.7837 4.62522C10.7837 6.48931 9.31428 8.00044 7.50164 8.00044C5.689 8.00044 4.21957 6.48931 4.21957 4.62522C4.21957 2.76114 5.689 1.25 7.50164 1.25Z" fill="#C2EFB3"/>
</svg>
