<svg width="21" height="20" viewBox="0 0 21 20" fill="none" xmlns="http://www.w3.org/2000/svg">
<path d="M12.95 4.32501C13.265 3.9619 13.5052 3.54015 13.6568 3.08395C13.8084 2.62776 13.8684 2.14611 13.8333 1.66667C12.8661 1.74474 11.9683 2.19964 11.3333 2.93334C11.0292 3.28498 10.7988 3.69407 10.6557 4.13638C10.5125 4.57868 10.4596 5.04521 10.5 5.50834C10.9718 5.51227 11.4381 5.40758 11.863 5.20239C12.2878 4.99719 12.6598 4.69698 12.95 4.32501ZM15.05 10.525C15.0556 9.88645 15.2238 9.25986 15.5387 8.70434C15.8536 8.14883 16.3049 7.68272 16.85 7.35001C16.506 6.85437 16.0513 6.4457 15.5219 6.1564C14.9924 5.8671 14.4029 5.70513 13.8 5.68334C12.5 5.55001 11.3 6.44167 10.6083 6.44167C9.91665 6.44167 8.94165 5.70001 7.85832 5.71667C7.15009 5.74 6.46 5.94649 5.85536 6.31599C5.25072 6.6855 4.75216 7.20541 4.40832 7.82501C2.94165 10.375 4.03332 14.1667 5.49999 16.225C6.16665 17.2333 6.99999 18.375 8.09999 18.3333C9.19999 18.2917 9.55832 17.65 10.8333 17.65C12.1083 17.65 12.5 18.3333 13.5833 18.3083C14.6667 18.2833 15.4333 17.275 16.1333 16.2667C16.6292 15.5346 17.0165 14.7347 17.2833 13.8917C16.6229 13.61 16.0594 13.1411 15.6625 12.5428C15.2656 11.9445 15.0527 11.243 15.05 10.525Z" fill="black"/>
</svg>
