<svg width="22" height="24" viewBox="0 0 22 24" fill="none" xmlns="http://www.w3.org/2000/svg">
<path d="M14.5998 18.4001C14.5998 19.3549 14.2206 20.2706 13.5454 20.9457C12.8703 21.6208 11.9546 22.0001 10.9998 22.0001C10.0451 22.0001 9.12939 21.6208 8.45425 20.9457C7.77912 20.2706 7.39984 19.3549 7.39984 18.4001M11.865 1.60372L10.1058 1.60012C6.09304 1.59052 2.60944 4.85092 2.58184 8.80012V13.3481C2.58184 14.2961 2.46184 15.2213 1.94464 16.0097L1.60024 16.5353C1.07584 17.3321 1.63984 18.4001 2.58184 18.4001H19.4178C20.3598 18.4001 20.9226 17.3321 20.3994 16.5353L20.055 16.0097C19.539 15.2213 19.4178 14.2949 19.4178 13.3469V8.80132C19.3698 4.85092 15.8778 1.61332 11.865 1.60372V1.60372Z" stroke="#573926" stroke-width="2.4" stroke-linecap="round" stroke-linejoin="round"/>
</svg>
