<svg width="22" height="28" viewBox="0 0 22 28" fill="none" xmlns="http://www.w3.org/2000/svg">
<path d="M14.5998 22.4001C14.5998 23.3549 14.2206 24.2706 13.5454 24.9457C12.8703 25.6208 11.9546 26.0001 10.9998 26.0001C10.0451 26.0001 9.12939 25.6208 8.45425 24.9457C7.77912 24.2706 7.39984 23.3549 7.39984 22.4001M11.865 5.60372L10.1058 5.60012C6.09304 5.59052 2.60944 8.85092 2.58184 12.8001V17.3481C2.58184 18.2961 2.46184 19.2213 1.94464 20.0097L1.60024 20.5353C1.07584 21.3321 1.63984 22.4001 2.58184 22.4001H19.4178C20.3598 22.4001 20.9226 21.3321 20.3994 20.5353L20.055 20.0097C19.539 19.2213 19.4178 18.2949 19.4178 17.3469V12.8013C19.3698 8.85092 15.8778 5.61332 11.865 5.60372V5.60372Z" stroke="#573926" stroke-width="2.4" stroke-linecap="round" stroke-linejoin="round"/>
<path d="M10.9996 2C11.6361 2 12.2466 2.25286 12.6967 2.70294C13.1468 3.15303 13.3996 3.76348 13.3996 4.4V5.6H8.59961V4.4C8.59961 3.76348 8.85247 3.15303 9.30255 2.70294C9.75264 2.25286 10.3631 2 10.9996 2Z" stroke="#573926" stroke-width="2.4" stroke-linecap="round" stroke-linejoin="round"/>
</svg>
