<svg width="18" height="17" viewBox="0 0 18 17" fill="none" xmlns="http://www.w3.org/2000/svg">
<g clip-path="url(#clip0_398_2351)">
<path d="M11.4792 3.89583C12.2583 3.89583 12.8958 3.25833 12.8958 2.47917C12.8958 1.7 12.2583 1.0625 11.4792 1.0625C10.7 1.0625 10.0625 1.7 10.0625 2.47917C10.0625 3.25833 10.7 3.89583 11.4792 3.89583ZM4.04167 8.5C2.05833 8.5 0.5 10.0583 0.5 12.0417C0.5 14.025 2.05833 15.5833 4.04167 15.5833C6.025 15.5833 7.58333 14.025 7.58333 12.0417C7.58333 10.0583 6.025 8.5 4.04167 8.5ZM4.04167 14.5208C2.69583 14.5208 1.5625 13.3875 1.5625 12.0417C1.5625 10.6958 2.69583 9.5625 4.04167 9.5625C5.3875 9.5625 6.52083 10.6958 6.52083 12.0417C6.52083 13.3875 5.3875 14.5208 4.04167 14.5208ZM8.15 7.4375L9.85 5.7375L10.4167 6.30417C11.1675 7.055 12.1025 7.565 13.2217 7.735C13.6467 7.79875 14.0292 7.45875 14.0292 7.02667C14.0292 6.67958 13.7671 6.38208 13.4271 6.32542C12.6408 6.19792 11.9963 5.8225 11.4792 5.3125L10.1333 3.96667C9.77917 3.68333 9.425 3.54167 9 3.54167C8.575 3.54167 8.22083 3.68333 8.00833 3.96667L6.025 5.95C5.74167 6.23333 5.6 6.5875 5.6 6.94167C5.6 7.36667 5.74167 7.72083 6.025 7.93333L8.29167 9.91667V12.75C8.29167 13.1396 8.61042 13.4583 9 13.4583C9.38958 13.4583 9.70833 13.1396 9.70833 12.75V9.63333C9.70833 9.265 9.56667 8.91792 9.31875 8.65583L8.15 7.4375ZM13.9583 8.5C11.975 8.5 10.4167 10.0583 10.4167 12.0417C10.4167 14.025 11.975 15.5833 13.9583 15.5833C15.9417 15.5833 17.5 14.025 17.5 12.0417C17.5 10.0583 15.9417 8.5 13.9583 8.5ZM13.9583 14.5208C12.6125 14.5208 11.4792 13.3875 11.4792 12.0417C11.4792 10.6958 12.6125 9.5625 13.9583 9.5625C15.3042 9.5625 16.4375 10.6958 16.4375 12.0417C16.4375 13.3875 15.3042 14.5208 13.9583 14.5208Z" fill="black" fill-opacity="0.6"/>
</g>
<defs>
<clipPath id="clip0_398_2351">
<rect width="17" height="17" fill="white" transform="translate(0.5)"/>
</clipPath>
</defs>
</svg>
