<svg width="29" height="32" viewBox="0 0 29 32" fill="none" xmlns="http://www.w3.org/2000/svg">
<path d="M27.7731 19.2435L23.8355 12.5243C23.7397 12.3581 23.6018 12.2201 23.4357 12.1242C23.2696 12.0282 23.0811 11.9777 22.8893 11.9777C22.6974 11.9777 22.509 12.0282 22.3429 12.1242C22.1767 12.2201 22.0388 12.3581 21.943 12.5243L20.8634 14.3788L12.7343 0.546652C12.6385 0.380465 12.5005 0.242447 12.3344 0.146485C12.1683 0.0505223 11.9799 0 11.788 0C11.5962 0 11.4077 0.0505223 11.2416 0.146485C11.0755 0.242447 10.9376 0.380465 10.8417 0.546652L2.43324 14.8995C1.14348 17.0397 0.590482 19.5435 0.85887 22.0278C1.12726 24.5121 2.20225 26.8401 3.91934 28.6554C5.03127 29.7752 6.3694 30.6447 7.8443 31.2059C9.3192 31.7671 10.8969 32.007 12.4719 31.9097C14.047 31.8123 15.5831 31.3798 16.9777 30.6412C18.3722 29.9026 19.593 28.8748 20.5585 27.6266C25.4614 29.8875 30.6309 24.1717 27.7731 19.2435Z" fill="#FF7171"/>
<path d="M22.3244 25.5945H22.1465C21.4363 25.4929 20.7872 25.1368 20.3199 24.5924C19.8526 24.048 19.599 23.3524 19.6062 22.635C19.6062 22.2982 19.74 21.9751 19.9782 21.7369C20.2164 21.4987 20.5395 21.3649 20.8764 21.3649C21.2132 21.3649 21.5363 21.4987 21.7745 21.7369C22.0127 21.9751 22.1465 22.2982 22.1465 22.635C22.1425 22.7334 22.1755 22.8297 22.239 22.9049C22.3025 22.9801 22.3919 23.0289 22.4895 23.0415C22.828 23.0634 23.144 23.2189 23.3679 23.4738C23.5918 23.7286 23.7053 24.062 23.6834 24.4006C23.6615 24.7391 23.5061 25.0551 23.2512 25.279C22.9963 25.5029 22.6629 25.6164 22.3244 25.5945ZM10.4737 29.405H10.2832C8.37497 29.1199 6.63441 28.1538 5.383 26.6853C4.1316 25.2167 3.4539 23.345 3.47509 21.4157C3.47509 21.0788 3.60891 20.7557 3.84711 20.5175C4.08532 20.2793 4.40839 20.1455 4.74526 20.1455C5.08213 20.1455 5.4052 20.2793 5.6434 20.5175C5.8816 20.7557 6.01542 21.0788 6.01542 21.4157C5.99804 22.7312 6.45827 24.0083 7.31079 25.0103C8.1633 26.0123 9.35025 26.6712 10.6515 26.8647C10.8183 26.8764 10.9812 26.9208 11.1308 26.9954C11.2805 27.07 11.4139 27.1734 11.5236 27.2996C11.6333 27.4258 11.7171 27.5724 11.7701 27.7309C11.8232 27.8895 11.8445 28.057 11.8328 28.2238C11.8211 28.3906 11.7767 28.5534 11.7021 28.7031C11.6275 28.8527 11.5241 28.9862 11.3979 29.0959C11.2717 29.2056 11.1251 29.2893 10.9665 29.3424C10.808 29.3954 10.6405 29.4167 10.4737 29.405Z" fill="white"/>
</svg>
