<svg width="33" height="33" viewBox="0 0 33 33" fill="none" xmlns="http://www.w3.org/2000/svg">
<path fill-rule="evenodd" clip-rule="evenodd" d="M25.5569 15.6044C25.5326 14.1865 25.5065 12.6658 25.5015 11.0368C25.3926 10.9821 25.2699 10.9187 25.1363 10.8469C24.6099 10.5642 23.9028 10.1456 23.1904 9.60482C21.8216 8.56574 20.1788 6.88148 20.1788 4.66424C20.1788 2.68989 21.6726 0.71875 23.893 0.71875C24.9241 0.71875 25.759 1.12997 26.3876 1.74457C27.0161 1.12999 27.851 0.71875 28.8821 0.71875C31.1028 0.71875 32.5963 2.69024 32.5963 4.66424C32.5963 6.81292 30.9452 8.4986 29.5908 9.54531C28.8813 10.0936 28.1769 10.5252 27.6525 10.8189C27.5139 10.8965 27.3872 10.9649 27.2754 11.0237C27.2805 12.5703 27.3055 14.047 27.3292 15.4451C27.3812 18.5094 27.4269 21.1963 27.2409 23.4146C26.9592 26.7745 26.1257 29.471 23.6357 30.9294C21.1859 32.3644 17.5673 32.9036 14.5705 32.539C13.0661 32.356 11.6302 31.9357 10.5443 31.2103C9.75321 30.682 9.12674 29.9721 8.832 29.0807C6.98933 28.9967 5.15739 28.6606 3.7074 28.0594C2.14253 27.4107 0.665527 26.2852 0.665527 24.5246V7.03581H0.668117C0.666397 6.9998 0.665527 6.9637 0.665527 6.92752C0.665527 4.47825 4.63665 2.49268 9.53519 2.49268C14.4337 2.49268 18.4049 4.47825 18.4049 6.92752C18.4049 6.9637 18.404 6.9998 18.4023 7.03581H18.4049V12.3122C21.4137 12.7426 23.7267 15.3302 23.7267 18.4581C23.7267 21.5862 21.4133 24.1741 18.404 24.6041C18.3627 26.3913 16.9339 27.5226 15.3577 28.1641C14.0551 28.6942 12.4492 28.9875 10.8077 29.0743C10.9853 29.3122 11.2253 29.5319 11.5296 29.7352C12.3019 30.2511 13.4372 30.6142 14.7846 30.778C17.4914 31.1073 20.6988 30.5938 22.7391 29.3988C24.4345 28.4058 25.2011 26.5113 25.4732 23.2664C25.6518 21.1354 25.6083 18.5988 25.5569 15.6044ZM16.6287 24.6036C16.5895 25.2939 16.0316 25.9746 14.6889 26.521C13.3366 27.0714 11.4679 27.3486 9.5453 27.3267C9.27176 27.3236 8.9992 27.3143 8.72885 27.2994V11.3443C8.99441 11.3562 9.26342 11.3623 9.53519 11.3623C12.4366 11.3623 15.0127 10.6658 16.6309 9.58886V12.3122C13.6221 12.7426 11.3091 15.3302 11.3091 18.4581C11.3091 21.5852 13.6209 24.1723 16.6287 24.6036ZM16.6309 6.92752C16.6309 7.1183 16.4302 7.76854 15.0136 8.47678C13.7032 9.13198 11.7688 9.58841 9.53519 9.58841C7.30154 9.58841 5.36716 9.13198 4.05672 8.47678C2.6402 7.76854 2.43946 7.1183 2.43946 6.92752C2.43946 6.73673 2.6402 6.08649 4.05672 5.37825C5.36716 4.72305 7.30154 4.26662 9.53519 4.26662C11.7688 4.26662 13.7032 4.72305 15.0136 5.37825C16.4302 6.08649 16.6309 6.73673 16.6309 6.92752ZM16.1874 18.9016L17.5179 14.4667L18.8483 18.9016L17.5179 20.6755L16.1874 18.9016Z" fill="#B983FF"/>
</svg>
