<svg width="13" height="14" viewBox="0 0 13 14" fill="none" xmlns="http://www.w3.org/2000/svg">
<path d="M12.2332 8.40629L10.5705 5.56896C10.53 5.49878 10.4718 5.4405 10.4016 5.39998C10.3315 5.35946 10.2519 5.33812 10.1709 5.33812C10.0899 5.33812 10.0103 5.35946 9.94014 5.39998C9.86999 5.4405 9.81175 5.49878 9.77128 5.56896L9.31538 6.35204L5.88269 0.51111C5.84222 0.440934 5.78399 0.382652 5.71384 0.34213C5.6437 0.301608 5.56412 0.280273 5.48311 0.280273C5.4021 0.280273 5.32252 0.301608 5.25237 0.34213C5.18223 0.382652 5.12399 0.440934 5.08352 0.51111L1.53283 6.57195C0.988203 7.47569 0.754686 8.53298 0.868019 9.58204C0.981353 10.6311 1.43529 11.6141 2.16037 12.3807C2.62991 12.8535 3.19497 13.2207 3.81778 13.4577C4.44059 13.6947 5.10681 13.796 5.77191 13.7549C6.43702 13.7137 7.08568 13.5311 7.67455 13.2192C8.26343 12.9073 8.77895 12.4733 9.18666 11.9462C11.257 12.901 13.44 10.4874 12.2332 8.40629Z" fill="#F24236"/>
<path d="M9.9324 11.0881H9.85732C9.55741 11.0452 9.2833 10.8948 9.08597 10.6649C8.88865 10.435 8.78155 10.1413 8.7846 9.83837C8.7846 9.69612 8.84111 9.55969 8.9417 9.45911C9.04228 9.35852 9.17871 9.30201 9.32096 9.30201C9.46321 9.30201 9.59963 9.35852 9.70022 9.45911C9.80081 9.55969 9.85732 9.69612 9.85732 9.83837C9.85563 9.8799 9.86956 9.92056 9.89637 9.95233C9.92317 9.9841 9.96091 10.0047 10.0021 10.01C10.1451 10.0193 10.2785 10.0849 10.3731 10.1925C10.4676 10.3002 10.5156 10.4409 10.5063 10.5839C10.4971 10.7269 10.4314 10.8603 10.3238 10.9549C10.2161 11.0494 10.0754 11.0973 9.9324 11.0881ZM4.92819 12.6972H4.84774C4.04195 12.5767 3.30696 12.1688 2.77852 11.5487C2.25009 10.9286 1.96391 10.1382 1.97286 9.32347C1.97286 9.18122 2.02937 9.04479 2.12996 8.94421C2.23054 8.84362 2.36697 8.78711 2.50922 8.78711C2.65147 8.78711 2.78789 8.84362 2.88848 8.94421C2.98907 9.04479 3.04557 9.18122 3.04557 9.32347C3.03823 9.87896 3.23258 10.4183 3.59257 10.8414C3.95257 11.2645 4.45378 11.5427 5.00328 11.6244C5.07372 11.6294 5.14249 11.6481 5.20568 11.6796C5.26886 11.7111 5.32523 11.7548 5.37154 11.8081C5.41786 11.8614 5.45323 11.9233 5.47563 11.9902C5.49803 12.0572 5.50702 12.1279 5.50209 12.1983C5.49716 12.2688 5.47841 12.3376 5.4469 12.4007C5.41539 12.4639 5.37174 12.5203 5.31845 12.5666C5.26516 12.6129 5.20326 12.6483 5.1363 12.6707C5.06934 12.6931 4.99863 12.7021 4.92819 12.6972Z" fill="#FBC6C3"/>
</svg>
