<svg width="115" height="272" viewBox="0 0 115 272" fill="none" xmlns="http://www.w3.org/2000/svg">
<path d="M107.643 134.777C106.046 132.792 104.007 130.091 103.416 128.528C102.446 125.829 101.728 117.179 101.728 117.179C101.429 106.941 98.9355 102.51 98.9355 102.51C94.6337 95.588 93.8293 82.7183 93.8293 82.7183L93.6342 60.9437C92.1486 46.0883 81.2245 45.9822 81.2245 45.9822C70.2141 44.3163 68.69 40.7611 68.69 40.7611C66.352 37.3938 67.6873 30.9228 67.6873 30.9228C69.6287 29.3372 70.366 25.1346 70.366 25.1346C73.5771 22.6766 73.4284 19.0379 71.9699 19.0748C70.7498 19.1054 71.0392 18.1206 71.0392 18.1206C73.0558 1.80807 58.6263 1 58.6263 1H56.421C56.421 1 42.0235 1.82735 44.0145 18.1206C44.0145 18.1206 44.2719 19.1054 43.0805 19.0748C41.5949 19.0395 41.4494 22.6606 44.6749 25.1346C44.6749 25.1346 45.409 29.3372 47.3552 30.9228C47.3552 30.9228 48.6809 37.3922 46.3509 40.7611C46.3509 40.7611 44.8172 44.3259 33.8148 45.9822C33.8148 45.9822 22.9099 46.0883 21.4051 60.9453L21.218 82.7199C21.218 82.7199 20.3992 95.6089 16.099 102.512C16.099 102.512 13.617 106.943 13.3036 117.181C13.3036 117.181 12.5903 125.831 11.6196 128.529C11.0375 130.112 8.98414 132.792 7.38975 134.779C4.25374 138.718 -1.01401 146.902 1.80056 147.808C1.80056 147.808 3.97388 148.018 6.87801 142.251C6.87801 142.251 6.82523 144.466 4.48401 150.919C4.03944 152.131 2.09003 158.232 5.23723 156.036C5.23723 156.036 6.68291 155.032 8.59074 148.73C8.59074 148.73 7.57845 159.323 8.69149 159.85C10.1707 160.57 10.9911 158.496 11.6452 149.204C11.6452 149.204 12.3265 146.211 12.6431 157.652C12.6607 158.226 13.5386 161.167 14.73 158.672C15.7231 156.571 15.2866 150.982 15.2866 149.109C15.2866 149.109 16.5931 156.335 17.7925 156.335C17.7925 156.335 19.211 158.023 18.6465 149.056C18.5265 147.587 19.0495 144.574 19.1102 143.676L19.2542 140.23C19.2542 140.23 18.9039 136.292 18.9039 134.657C18.9039 134.252 20.3032 128.868 24.015 123.209C24.015 123.209 31.7023 109.486 31.2065 100.517C31.2065 100.517 31.1026 91.9557 34.2002 87.1008C34.2002 87.1008 36.4055 111.341 34.9167 118.151C34.9167 118.151 27.9905 134.866 29.5066 147.34C30.634 156.613 32.8041 176.455 35.003 184.287C36.1464 188.335 35.4732 198.554 36.3975 201.095C36.8005 202.202 36.5878 203.203 35.6987 205.746C32.5722 214.529 32.9848 220.708 40.8081 244.021C40.8081 244.021 43.2085 249.181 41.9963 258.464C41.9963 258.464 36.9956 268.776 40.2164 268.996C40.2164 268.996 40.4771 269.682 41.5325 269.128C41.5325 269.128 43.2532 270.913 45.1259 269.955C45.1259 269.955 46.8546 271.327 48.3243 270.105C48.3243 270.105 49.5317 271.457 51.2652 270.368C51.2652 270.368 53.5217 271.88 54.857 270.227C54.857 270.227 57.2686 270.791 52.9827 259.91C52.9827 259.91 51.3436 248.412 50.456 246.16C48.7449 241.848 49.9475 230.131 50.3249 227.6C50.9038 223.408 50.5903 216.224 49.5061 210.68C48.7353 206.704 50.8702 199.198 51.6394 194.581C53.2674 184.858 56.4322 160.051 56.0372 155.384L57.3469 155.84C58.2952 155.84 58.9157 155.384 58.9157 155.384C58.5223 160.07 61.6743 184.86 63.3215 194.581C64.0939 199.197 66.2256 206.704 65.458 210.68C64.3722 216.224 64.0587 223.408 64.6392 227.6C65.0182 230.131 66.2256 241.857 64.5113 246.16C63.6126 248.41 61.9798 259.91 61.9798 259.91C57.6956 270.773 60.1071 270.227 60.1071 270.227C61.4425 271.88 63.7069 270.368 63.7069 270.368C65.4404 271.457 66.651 270.105 66.651 270.105C68.1175 271.343 69.8366 269.955 69.8366 269.955C71.7189 270.914 73.43 269.128 73.43 269.128C74.4967 269.682 74.7589 268.996 74.7589 268.996C77.9541 268.784 72.9742 258.464 72.9742 258.464C71.7668 249.181 74.164 244.021 74.164 244.021C81.9873 220.708 82.3903 214.529 79.2766 205.746C78.3731 203.224 78.1716 202.204 78.5746 201.095C79.5101 198.554 78.8289 188.335 79.9659 184.287C82.1744 176.463 84.3397 156.621 85.4623 147.34C86.9847 134.866 80.0539 118.151 80.0539 118.151C78.5666 111.341 80.7719 87.1008 80.7719 87.1008C83.8695 91.9541 83.764 100.517 83.764 100.517C83.257 109.478 90.9572 123.209 90.9572 123.209C94.6673 128.888 96.0698 134.268 96.0698 134.657C96.0698 136.299 95.7164 140.23 95.7164 140.23L95.8603 143.676C95.9275 144.574 96.42 147.587 96.3305 149.056C95.7643 158.004 97.1812 156.335 97.1812 156.335C98.3854 156.335 99.6887 149.109 99.6887 149.109C99.6887 150.972 99.2346 156.563 100.244 158.672C101.461 161.153 102.313 158.227 102.334 157.652C102.647 146.211 103.329 149.204 103.329 149.204C103.978 158.48 104.8 160.57 106.271 159.85C107.39 159.305 106.375 148.73 106.375 148.73C108.284 154.997 109.735 156.036 109.735 156.036C112.877 158.232 110.929 152.115 110.488 150.919C108.144 144.464 108.091 142.251 108.091 142.251C110.981 148.036 113.17 147.808 113.17 147.808C116.052 146.9 110.749 138.718 107.643 134.777Z" fill="white" stroke="#4E4FEB"/>
</svg>
