<svg width="24" height="24" viewBox="0 0 24 24" fill="none" xmlns="http://www.w3.org/2000/svg">
<path d="M12.0127 3C10.8324 3 9.66375 3.23278 8.57336 3.68505C7.48297 4.13733 6.49221 4.80023 5.65766 5.63592C3.97221 7.32368 3.02533 9.61276 3.02533 11.9996C3.01748 14.0777 3.73604 16.0931 5.05647 17.6964L3.259 19.4963C3.1343 19.6228 3.04982 19.7835 3.01623 19.9581C2.98264 20.1327 3.00144 20.3133 3.07027 20.4772C3.14492 20.6392 3.26593 20.7752 3.41794 20.8682C3.56995 20.9611 3.74612 21.0067 3.92407 20.9992H12.0127C14.3963 20.9992 16.6822 20.051 18.3677 18.3633C20.0531 16.6755 21 14.3864 21 11.9996C21 9.61276 20.0531 7.32368 18.3677 5.63592C16.6822 3.94817 14.3963 3 12.0127 3Z" fill="#4E4FEB"/>
<path d="M7.75616 9.42773H16.7435C16.9818 9.42773 17.2104 9.52255 17.379 9.69133C17.5475 9.8601 17.6422 10.089 17.6422 10.3277C17.6422 10.5664 17.5475 10.7953 17.379 10.9641C17.2104 11.1328 16.9818 11.2277 16.7435 11.2277H7.75616C7.5178 11.2277 7.2892 11.1328 7.12066 10.9641C6.95211 10.7953 6.85742 10.5664 6.85742 10.3277C6.85742 10.089 6.95211 9.8601 7.12066 9.69133C7.2892 9.52255 7.5178 9.42773 7.75616 9.42773Z" fill="#C2EFB3"/>
<path d="M7.75616 13.0276H13.1486C13.3869 13.0276 13.6155 13.1224 13.7841 13.2912C13.9526 13.4599 14.0473 13.6889 14.0473 13.9275C14.0473 14.1662 13.9526 14.3951 13.7841 14.5639C13.6155 14.7327 13.3869 14.8275 13.1486 14.8275H7.75616C7.5178 14.8275 7.2892 14.7327 7.12066 14.5639C6.95211 14.3951 6.85742 14.1662 6.85742 13.9275C6.85742 13.6889 6.95211 13.4599 7.12066 13.2912C7.2892 13.1224 7.5178 13.0276 7.75616 13.0276Z" fill="#C2EFB3"/>
</svg>
