<svg width="28" height="28" viewBox="0 0 28 28" fill="none" xmlns="http://www.w3.org/2000/svg">
<g clip-path="url(#clip0_3841_6628)">
<path d="M22.2834 20.7266L16.2903 21.4152L9.24204 21.1258L5.68089 20.8568L4.9531 21.8038V24.376C4.9531 24.974 5.43833 25.4592 6.03623 25.4592H21.9068C22.5047 25.4592 22.9899 24.974 22.9899 24.376V21.8038L22.2834 20.7266Z" fill="#F8F3F2"/>
<path d="M22.0936 6.88035C21.6078 6.86801 21.1346 6.91319 20.6801 7.00922C20.3969 7.06907 20.1131 6.91274 20.0077 6.64312C19.069 4.24199 16.7332 2.54102 13.9998 2.54102C11.2665 2.54102 8.93075 4.24199 7.99199 6.643C7.94078 6.77417 7.84465 6.88289 7.72074 6.94978C7.59683 7.01666 7.4532 7.03737 7.31544 7.0082C6.90223 6.92139 6.48111 6.87779 6.05888 6.87809C2.72341 6.87979 -0.00509628 9.61452 -5.03292e-07 12.9494C0.00396288 15.7158 1.86166 18.048 4.39709 18.7704C4.72548 18.8644 4.9531 19.1623 4.9531 19.5037V19.9379L6.29391 21.1262H18.1969C18.1969 21.1262 22.0738 20.8017 22.1759 20.8017C22.2779 20.8017 22.9899 19.9379 22.9899 19.9379V19.5201C22.9899 19.1758 23.221 18.8763 23.5522 18.7846C26.1499 18.0689 28.0489 15.6677 27.9991 12.8305C27.9419 9.60037 25.3232 6.96126 22.0936 6.88035Z" fill="#F8F3F2"/>
<path d="M7.37489 7.01715C7.39816 7.93677 7.44035 9.04986 7.47636 9.6134C7.47958 9.6693 7.49382 9.72401 7.51827 9.77439C7.54272 9.82477 7.57689 9.86981 7.61881 9.90693C7.66074 9.94405 7.70959 9.97251 7.76256 9.99067C7.81553 10.0088 7.87157 10.0163 7.92745 10.0128C7.98333 10.0092 8.03795 9.99458 8.08817 9.96981C8.13839 9.94504 8.18321 9.91058 8.22006 9.86841C8.25691 9.82625 8.28505 9.77721 8.30287 9.72413C8.32069 9.67104 8.32784 9.61496 8.3239 9.5591C8.27702 8.82655 8.21796 7.0676 8.2076 6.15234C8.12896 6.31265 8.05702 6.47615 7.99199 6.64244C7.94448 6.76394 7.85832 6.86645 7.74681 6.93416C7.6353 7.00187 7.50461 7.03103 7.37489 7.01715ZM10.6005 22.0442C10.5138 22.0441 10.4292 22.0176 10.3581 21.9681C10.2869 21.9186 10.2326 21.8485 10.2024 21.7672L9.73231 20.5015C9.73004 20.4954 9.7279 20.4891 9.72592 20.4829L9.23559 18.9473C8.67544 17.1907 8.24079 15.3964 7.93492 13.5781C7.91812 13.4679 7.94535 13.3555 8.01074 13.2651C8.07614 13.1748 8.17444 13.1138 8.28442 13.0953C8.3944 13.0768 8.50723 13.1024 8.59855 13.1664C8.68987 13.2304 8.75235 13.3278 8.7725 13.4374C9.07164 15.2159 9.49676 16.9708 10.0446 18.689L10.532 20.2151L10.9986 21.4716C11.0224 21.5358 11.0304 21.6048 11.0218 21.6728C11.0132 21.7407 10.9883 21.8056 10.9492 21.8619C10.9101 21.9181 10.8579 21.9641 10.7972 21.9958C10.7365 22.0276 10.669 22.0441 10.6005 22.0442ZM20.0724 10.0101C20.1848 10.0173 20.2954 9.97951 20.3799 9.90513C20.4645 9.83075 20.516 9.72583 20.5232 9.61345C20.5593 9.05003 20.6009 7.93717 20.6242 7.01772C20.3603 7.04745 20.1061 6.89457 20.0077 6.64273C19.9429 6.47694 19.8712 6.31394 19.7928 6.15416C19.7824 7.06941 19.7226 8.82672 19.6757 9.55927C19.6685 9.67165 19.7063 9.78228 19.7807 9.86682C19.8551 9.95136 19.96 10.0029 20.0724 10.0101ZM17.4633 22.0442C17.3964 22.0442 17.3304 22.0284 17.2708 21.9981C17.2111 21.9677 17.1595 21.9238 17.1201 21.8697C17.0806 21.8156 17.0545 21.753 17.0439 21.687C17.0333 21.6209 17.0384 21.5533 17.0589 21.4896L17.4654 20.2233L17.955 18.689C18.5029 16.9708 18.928 15.2159 19.2272 13.4374C19.2458 13.3263 19.3078 13.2272 19.3996 13.1619C19.4913 13.0965 19.6052 13.0703 19.7163 13.0889C19.8274 13.1076 19.9265 13.1696 19.9918 13.2613C20.0572 13.3531 20.0834 13.467 20.0647 13.5781C19.7589 15.3963 19.3242 17.1906 18.7641 18.9472L18.2744 20.4821L17.8675 21.7492C17.84 21.8348 17.7861 21.9095 17.7134 21.9625C17.6408 22.0155 17.5532 22.0441 17.4633 22.0442ZM6.80077 20.6047V18.2539C6.80077 17.905 6.56818 17.6007 6.23259 17.5047C3.64173 16.7664 1.74338 14.3832 1.73936 11.5563C1.73709 10.072 2.26524 8.70357 3.1433 7.63204C1.27106 8.66949 -0.00345443 10.6691 -6.27067e-07 12.9489C0.00396276 15.7154 1.86166 18.0475 4.39709 18.77C4.72548 18.864 4.9531 19.1618 4.9531 19.5032V19.9375L6.29391 21.1257H6.80077V20.6047Z" fill="#F2EAE7"/>
<path d="M6.80077 24.8193V20.942L5.68089 20.8574L4.9531 21.8044V24.3767C4.9531 24.9746 5.43833 25.4598 6.03623 25.4598H7.00619C6.87252 25.273 6.80069 25.049 6.80077 24.8193Z" fill="#F2EAE7"/>
<path d="M22.9899 19.9385V21.8047C16.9899 22.4864 10.978 22.4835 4.9531 21.8047V19.9385C6.68 20.1332 8.40577 20.272 10.1304 20.3546C12.7128 20.4803 15.2924 20.4798 17.8698 20.3541C19.5774 20.2708 21.2839 20.1321 22.9899 19.9385Z" fill="#F2EAE7"/>
<path d="M6.80077 20.6047V20.1242C6.18419 20.069 5.56826 20.0068 4.9531 19.9375V21.8037C5.56826 21.8729 6.18419 21.9351 6.80077 21.9903V20.6047Z" fill="#EDE2DD"/>
</g>
<defs>
<clipPath id="clip0_3841_6628">
<rect width="28" height="28" fill="white"/>
</clipPath>
</defs>
</svg>
