<svg width="100" height="90" viewBox="0 0 100 90" fill="none" xmlns="http://www.w3.org/2000/svg">
<g clip-path="url(#clip0_58_339)">
<path d="M99.1227 34.4178C99.0869 34.4178 99.0519 34.4068 99.0226 34.3863L50.5035 0.508697C50.3558 0.406081 50.1804 0.351241 50.0007 0.351549C49.821 0.351856 49.6458 0.407295 49.4985 0.510415L1.32885 34.386C1.29075 34.4127 1.24359 34.4233 1.19776 34.4152C1.15192 34.4071 1.11115 34.3811 1.08443 34.3429C1.0577 34.3047 1.04721 34.2575 1.05525 34.2115C1.0633 34.1656 1.08922 34.1247 1.12732 34.0979L49.297 0.222356C49.5032 0.0780093 49.7486 0.000416096 50.0001 1.6688e-06C50.2516 -0.000412759 50.4973 0.0763708 50.704 0.220037L99.2231 34.0975C99.2537 34.119 99.2768 34.1496 99.2888 34.1851C99.3009 34.2205 99.3014 34.2589 99.2902 34.2946C99.279 34.3304 99.2567 34.3616 99.2266 34.3837C99.1964 34.4059 99.16 34.4178 99.1227 34.4178Z" fill="#3F3D56"/>
<path d="M4.08142 35.6187L50.0484 1.46326L96.3642 38.049L52.4169 64.1691L28.5572 58.7164L4.08142 35.6187Z" fill="#E6E6E6"/>
<path d="M30.5711 80.3023H7.86229C7.72285 80.3025 7.58475 80.2751 7.45587 80.2217C7.32699 80.1684 7.20988 80.09 7.11121 79.9912C7.01255 79.8924 6.93428 79.7751 6.88088 79.646C6.82748 79.5168 6.79999 79.3784 6.79999 79.2386C6.79999 79.0988 6.82748 78.9604 6.88088 78.8312C6.93428 78.7021 7.01255 78.5848 7.11121 78.486C7.20988 78.3872 7.32699 78.3089 7.45587 78.2555C7.58475 78.2021 7.72285 78.1747 7.86229 78.1749H30.5711C30.7106 78.1747 30.8487 78.2021 30.9775 78.2555C31.1064 78.3089 31.2235 78.3872 31.3222 78.486C31.4209 78.5848 31.4991 78.7021 31.5525 78.8312C31.6059 78.9604 31.6334 79.0988 31.6334 79.2386C31.6334 79.3784 31.6059 79.5168 31.5525 79.646C31.4991 79.7751 31.4209 79.8924 31.3222 79.9912C31.2235 80.09 31.1064 80.1684 30.9775 80.2217C30.8487 80.2751 30.7106 80.3025 30.5711 80.3023Z" fill="#6C63FF"/>
<path d="M16.0097 75.7292H7.86229C7.72285 75.7294 7.58475 75.702 7.45587 75.6486C7.32699 75.5952 7.20988 75.5169 7.11121 75.4181C7.01255 75.3193 6.93428 75.202 6.88088 75.0729C6.82748 74.9437 6.79999 74.8053 6.79999 74.6655C6.79999 74.5257 6.82748 74.3873 6.88088 74.2581C6.93428 74.129 7.01255 74.0117 7.11121 73.9129C7.20988 73.8141 7.32699 73.7358 7.45587 73.6824C7.58475 73.629 7.72285 73.6016 7.86229 73.6018H16.0097C16.1492 73.6016 16.2873 73.629 16.4161 73.6824C16.545 73.7358 16.6621 73.8141 16.7608 73.9129C16.8595 74.0117 16.9377 74.129 16.9911 74.2581C17.0445 74.3873 17.072 74.5257 17.072 74.6655C17.072 74.8053 17.0445 74.9437 16.9911 75.0729C16.9377 75.202 16.8595 75.3193 16.7608 75.4181C16.6621 75.5169 16.545 75.5952 16.4161 75.6486C16.2873 75.702 16.1492 75.7294 16.0097 75.7292Z" fill="#6C63FF"/>
<path d="M50.6948 54.6428C50.5222 54.6429 50.3512 54.6094 50.1914 54.5439L21.8422 42.7505V5.83513C21.8425 5.5087 21.972 5.19575 22.2023 4.96493C22.4325 4.73411 22.7446 4.60426 23.0702 4.60388H77.4562C77.7818 4.60426 78.0939 4.73411 78.3242 4.96493C78.5544 5.19575 78.6839 5.5087 78.6843 5.83513V42.7763L78.631 42.7991L51.2134 54.5381C51.0492 54.6073 50.8729 54.6429 50.6948 54.6428Z" fill="white"/>
<path d="M50.6947 54.7307C50.5107 54.7309 50.3284 54.6951 50.158 54.6254L21.7544 42.8093V5.83519C21.7548 5.48544 21.8935 5.15012 22.1402 4.90281C22.3869 4.6555 22.7213 4.51639 23.0702 4.51599H77.4561C77.805 4.51639 78.1394 4.6555 78.3861 4.90281C78.6328 5.15012 78.7715 5.48544 78.7719 5.83519V42.8344L51.2478 54.619C51.0727 54.6929 50.8847 54.7308 50.6947 54.7307ZM22.1053 42.5743L50.2918 54.3001C50.5547 54.4071 50.8491 54.4053 51.1107 54.2952L78.4211 42.6021V5.83519C78.4208 5.57871 78.319 5.33282 78.1381 5.15146C77.9572 4.9701 77.712 4.86808 77.4562 4.86778H23.0702C22.8144 4.86808 22.5691 4.9701 22.3882 5.15146C22.2073 5.33282 22.1056 5.57871 22.1053 5.83519L22.1053 42.5743Z" fill="#3F3D56"/>
<path d="M98.7719 34.066H98.7368L78.5965 42.6883L51.0404 54.4855C50.9327 54.5309 50.8172 54.5546 50.7004 54.5552C50.5835 54.5558 50.4678 54.5333 50.3596 54.489L21.9298 42.6637L1.29472 34.0801L1.26319 34.066H1.22807C0.902477 34.0664 0.590321 34.1962 0.360091 34.4271C0.129862 34.6579 0.000361272 34.9709 0 35.2973V88.7687C0.000361735 89.0952 0.129862 89.4081 0.360091 89.639C0.590321 89.8698 0.902477 89.9996 1.22807 90H98.7719C99.0975 89.9996 99.4097 89.8698 99.6399 89.639C99.8701 89.4081 99.9996 89.0952 100 88.7687V35.2973C99.9996 34.9709 99.8701 34.6579 99.6399 34.4271C99.4097 34.1962 99.0975 34.0664 98.7719 34.066ZM99.6491 88.7687C99.649 89.002 99.5566 89.2256 99.3921 89.3905C99.2276 89.5554 99.0045 89.6481 98.7719 89.6482H1.22807C0.995453 89.6481 0.77239 89.5554 0.607905 89.3905C0.443419 89.2256 0.35097 89.002 0.350877 88.7687V35.2973C0.351195 35.0699 0.439186 34.8514 0.596453 34.6875C0.753719 34.5236 0.968087 34.4269 1.19475 34.4178L21.9298 43.0436L50.2246 54.8144C50.5309 54.9393 50.8741 54.9374 51.179 54.8091L78.5965 43.07L98.8071 34.4178C99.0333 34.4276 99.2471 34.5245 99.4039 34.6883C99.5608 34.8521 99.6486 35.0702 99.6491 35.2973V88.7687Z" fill="#3F3D56"/>
<path d="M50.4114 44.175C49.3648 44.1769 48.346 43.8376 47.5086 43.2082L47.4567 43.1692L36.5249 34.7777C36.0187 34.3888 35.5938 33.9038 35.2745 33.3502C34.9552 32.7967 34.7478 32.1855 34.6641 31.5516C34.5804 30.9176 34.622 30.2734 34.7867 29.6556C34.9513 29.0379 35.2357 28.4586 35.6236 27.9511C36.0115 27.4435 36.4953 27.0175 37.0475 26.6973C37.5996 26.3772 38.2092 26.1693 38.8415 26.0854C39.4737 26.0015 40.1163 26.0432 40.7325 26.2083C41.3487 26.3734 41.9264 26.6585 42.4327 27.0474L49.5134 32.4909L66.2464 10.6121C66.6345 10.1047 67.1184 9.67883 67.6707 9.35891C68.2229 9.03899 68.8326 8.83125 69.4649 8.74757C70.0972 8.66388 70.7398 8.70589 71.3559 8.87118C71.972 9.03648 72.5496 9.32183 73.0557 9.71094L72.9517 9.85256L73.0584 9.713C74.0794 10.4997 74.7474 11.6603 74.9159 12.9402C75.0844 14.22 74.7397 15.5147 73.9573 16.54L54.2753 42.2747C53.8201 42.8677 53.2348 43.3476 52.5647 43.6771C51.8946 44.0067 51.1578 44.177 50.4114 44.175Z" fill="#6C63FF"/>
</g>
<defs>
<clipPath id="clip0_58_339">
<rect width="100" height="90" fill="white"/>
</clipPath>
</defs>
</svg>
