<svg width="24" height="24" viewBox="0 0 24 24" fill="none" xmlns="http://www.w3.org/2000/svg">
<path d="M3.49985 13.9124V13.7079C3.53477 13.0531 3.74142 12.4187 4.09931 11.8677C4.69608 11.1991 5.10632 10.3869 5.28928 9.51192C5.33402 8.84518 5.28928 8.16066 5.33402 7.48503C5.65612 4.24024 8.86815 2 11.946 2H12.0354C15.1669 2 18.2985 4.24024 18.6384 7.48503C18.7011 8.15177 18.6384 8.84518 18.6921 9.51192C18.8706 10.3884 19.2814 11.2017 19.8821 11.8677C20.2555 12.4124 20.4693 13.0495 20.4995 13.7079V13.9124C20.505 14.7993 20.1871 15.6582 19.6047 16.3304C18.8576 17.1274 17.8419 17.624 16.7506 17.7261C13.5637 18.135 10.3372 18.135 7.15029 17.7261C6.07164 17.6157 5.0701 17.1197 4.33194 16.3304C3.7678 15.6518 3.47197 14.7921 3.49985 13.9124Z" fill="#4E4FEB"/>
<path opacity="0.4" d="M13.1632 19.095C12.528 19.0505 12.009 19.095 11.4901 19.095C10.9755 19.0861 10.4617 19.1398 9.96015 19.255C9.53068 19.3528 9.06543 19.5839 9.06543 20.0728C9.11049 20.5454 9.36667 20.9729 9.76331 21.2374C10.5274 21.8209 11.4902 22.0856 12.4475 21.9753C13.3779 21.9066 14.2284 21.427 14.7648 20.6685C15.0612 20.2841 14.9936 19.7348 14.6127 19.4328C14.1616 19.2123 13.6659 19.0967 13.1632 19.095Z" fill="#4E4FEB"/>
</svg>
