<svg width="25" height="25" viewBox="0 0 25 25" fill="none" xmlns="http://www.w3.org/2000/svg">
<path d="M16.533 8.22919C16.5221 8.13447 16.5027 8.04092 16.4752 7.94963L19.6564 4.08399C19.6997 4.03597 19.7597 4.00625 19.8242 4.00088C19.8886 3.99551 19.9527 4.01488 20.0034 4.05507C20.0512 4.09648 20.081 4.1549 20.0864 4.2179C20.0918 4.2809 20.0724 4.34353 20.0323 4.39247L16.909 8.18099C16.7826 8.18755 16.657 8.20366 16.533 8.22919ZM21.9411 4.98051C21.9213 4.95573 21.8967 4.93524 21.8688 4.92028C21.8408 4.90533 21.8102 4.89622 21.7786 4.89351C21.747 4.8908 21.7152 4.89456 21.6852 4.90454C21.6551 4.91453 21.6274 4.93054 21.6037 4.95159L17.5549 8.27739C17.7139 8.34064 17.8582 8.43579 17.979 8.55695L21.9121 5.31791C21.9369 5.29816 21.9574 5.27356 21.9724 5.24563C21.9873 5.21769 21.9964 5.187 21.9991 5.15543C22.0019 5.12386 21.9981 5.09206 21.9881 5.06199C21.9781 5.03192 21.9621 5.00419 21.9411 4.98051ZM19.266 10.2208C19.2186 10.2167 19.1734 10.1986 19.1362 10.169C19.099 10.1393 19.0714 10.0993 19.0568 10.054C18.9799 9.8356 18.8376 9.64613 18.6493 9.51142C18.4609 9.3767 18.2357 9.30329 18.0041 9.30116C17.9501 9.30117 17.8976 9.28303 17.8551 9.24964C17.8126 9.21624 17.7826 9.16955 17.7698 9.11704C17.7515 9.05052 17.5481 8.44224 16.3585 8.76325C16.3213 8.77316 16.2823 8.77405 16.2447 8.76584C16.2071 8.75763 16.1719 8.74056 16.1422 8.71605C16.1125 8.69153 16.0891 8.66029 16.0739 8.6249C16.0587 8.58952 16.0522 8.55102 16.0549 8.51261C16.079 8.22393 15.9994 7.93611 15.8303 7.70092C15.7717 7.64048 15.7006 7.59356 15.622 7.56342C15.5435 7.53328 15.4592 7.52066 15.3753 7.52644C15.3396 7.5263 15.3044 7.51825 15.2722 7.50287C15.2401 7.4875 15.2117 7.46517 15.1892 7.4375C15.1667 7.40984 15.1506 7.37753 15.1421 7.34289C15.1336 7.30826 15.1329 7.27218 15.14 7.23724C15.1398 7.18222 15.1184 7.1294 15.0803 7.08974C14.9993 6.99334 14.7631 6.84007 14.0941 6.84007C14.0592 6.83921 14.0249 6.83074 13.9936 6.81525C13.9623 6.79977 13.9347 6.77764 13.9129 6.75042C13.8794 6.7122 13.8591 6.66419 13.855 6.61353C13.8242 6.57208 13.6227 6.36578 12.6375 6.2742C11.2966 6.1431 10.8956 6.55183 10.8734 6.78319C10.865 6.84497 10.8347 6.90167 10.788 6.94292C10.7413 6.98417 10.6812 7.00721 10.6189 7.0078C10.3042 6.96998 9.98649 7.04805 9.72516 7.22741C9.46384 7.40677 9.27677 7.67516 9.19891 7.98241C9.18754 8.03565 9.15868 8.08355 9.11692 8.11849C9.07517 8.15343 9.02293 8.1734 8.96852 8.17521C7.97559 8.2022 7.8281 8.72951 7.82232 8.75361C7.81065 8.79908 7.78635 8.84031 7.75224 8.87256C7.71812 8.9048 7.67557 8.92673 7.62952 8.9358C7.34377 8.99918 7.07593 9.12601 6.84583 9.30689C6.61572 9.48777 6.42923 9.71808 6.30016 9.98078C6.28428 10.0156 6.26036 10.0462 6.23036 10.07C6.20037 10.0938 6.16515 10.1101 6.12761 10.1177C5.94967 10.1456 5.7831 10.2228 5.64679 10.3405C5.51048 10.4582 5.40989 10.6118 5.35641 10.7838H20.0285C19.9551 10.6362 19.8477 10.5082 19.7152 10.4103C19.5826 10.3124 19.4286 10.2475 19.266 10.2208ZM21.3029 11.5434C21.3829 13.1562 21.2316 18.195 16.2429 18.8843H11.5096C11.446 18.8853 11.3853 18.911 11.3403 18.956C11.2953 19.001 11.2696 19.0617 11.2686 19.1253C11.2684 19.157 11.2744 19.1885 11.2864 19.2178C11.2985 19.2472 11.3162 19.2738 11.3386 19.2963C11.3611 19.3187 11.3877 19.3364 11.4171 19.3485C11.4464 19.3605 11.4779 19.3665 11.5096 19.3663H16.0211V19.8194C16.0211 19.8573 16.0137 19.895 15.9991 19.93C15.9846 19.9651 15.9633 19.997 15.9364 20.0239C15.9096 20.0507 15.8777 20.072 15.8426 20.0866C15.8075 20.1011 15.7699 20.1086 15.7319 20.1086H9.58258C9.54461 20.1086 9.507 20.1011 9.47191 20.0866C9.43682 20.072 9.40494 20.0507 9.37809 20.0239C9.35123 19.997 9.32993 19.9651 9.3154 19.93C9.30086 19.895 9.29338 19.8573 9.29338 19.8194V19.1253C9.29404 19.0686 9.27375 19.0136 9.23639 18.9709C9.19904 18.9282 9.14725 18.9008 9.09094 18.8939C4.08489 18.2066 3.93258 13.1562 4.01259 11.5434C4.0163 11.4693 4.0484 11.3994 4.10224 11.3482C4.15608 11.2971 4.22753 11.2686 4.30179 11.2687H21.0147C21.0885 11.2686 21.1595 11.2966 21.2133 11.3472C21.267 11.3977 21.2994 11.4669 21.3039 11.5405L21.3029 11.5434ZM7.12438 16.4232C6.32994 15.6775 5.81888 14.6792 5.67838 13.5987C5.66389 13.5376 5.62729 13.4842 5.57565 13.4486C5.52402 13.4129 5.46101 13.3977 5.39882 13.4059C5.36713 13.4101 5.33668 13.421 5.30943 13.4377C5.28218 13.4544 5.25872 13.4767 5.24057 13.503C5.22242 13.5293 5.20997 13.5591 5.20402 13.5906C5.19807 13.622 5.19875 13.6543 5.20602 13.6854C5.36195 14.8721 5.92805 15.9668 6.80626 16.7799C6.85273 16.8172 6.91053 16.8376 6.97014 16.8377C7.00452 16.8396 7.03886 16.8336 7.07059 16.8202C7.10232 16.8069 7.1306 16.7865 7.1533 16.7606C7.17436 16.7369 7.19036 16.7092 7.20035 16.6791C7.21033 16.649 7.21409 16.6173 7.21138 16.5857C7.20868 16.5541 7.19957 16.5234 7.18461 16.4955C7.16965 16.4675 7.14916 16.443 7.12438 16.4232Z" fill="#4E4FEB"/>
</svg>
