<svg width="36" height="37" viewBox="0 0 36 37" fill="none" xmlns="http://www.w3.org/2000/svg">
<path d="M23.1428 8.32495C25.4399 8.32495 27.302 6.46137 27.302 4.16248C27.302 1.86361 25.4399 0 23.1428 0C20.8458 0 18.9837 1.86361 18.9837 4.16248C18.9837 6.46137 20.8458 8.32495 23.1428 8.32495ZM14.7876 12.2861C13.6346 12.5721 12.8483 13.0035 12.2135 13.5384C11.2608 14.3414 10.4928 15.5 9.45376 17.3197C8.94726 18.2068 7.81809 18.515 6.93172 18.0081C6.04525 17.5011 5.73738 16.371 6.24388 15.4839C7.27767 13.6735 8.32338 11.9798 9.83206 10.7083C11.4073 9.38074 13.3347 8.62909 15.9358 8.33975C17.0225 8.21895 18.2177 8.24328 19.3391 8.74416C20.5164 9.27011 21.3753 10.2125 21.9614 11.4721C22.7505 13.168 23.3376 14.1778 23.8079 14.7625C24.0339 15.0435 24.1921 15.1738 24.2814 15.2322C24.3526 15.2787 24.3826 15.2822 24.3941 15.2835L24.3954 15.2837C24.4759 15.2935 24.7359 15.2833 25.5019 14.9445C25.8352 14.797 26.1998 14.6188 26.6449 14.4011L26.7514 14.3491C27.2331 14.1137 27.7845 13.8459 28.4002 13.5719C29.3331 13.1569 30.4256 13.5774 30.8402 14.5111C31.2548 15.4447 30.8348 16.538 29.9018 16.953C29.3516 17.1977 28.8517 17.4402 28.3738 17.6738L28.253 17.7329C27.8269 17.9413 27.3982 18.151 26.9966 18.3287C26.1641 18.6969 25.1005 19.0969 23.9485 18.9566C22.7327 18.8084 21.795 18.1219 21.0238 17.1994L18.497 22.0765L21.9905 26.6262C22.1989 26.8976 22.3279 27.2215 22.3633 27.5619L23.133 34.9583C23.2387 35.9745 22.5012 36.8842 21.4858 36.9899C20.4703 37.0958 19.5615 36.3577 19.4558 35.3415L18.7404 28.4657L16.6185 25.7023L16.6007 25.7366L16.5226 25.5775L12.6015 20.4708C12.2096 19.9605 12.1109 19.2831 12.3409 18.6821L14.7876 12.2861Z" fill="#9395FF"/>
<path d="M13.2666 22.165L12.1813 25.1667L7.90333 24.8171C7.09135 24.7507 6.38081 25.3735 6.31624 26.2079C6.25167 27.0425 6.85755 27.7728 7.66949 27.8392L13.0586 28.2796C13.716 28.3333 14.3282 27.932 14.558 27.2966L15.3877 25.0019L13.2666 22.165Z" fill="#9395FF"/>
</svg>
