<svg width="25" height="25" viewBox="0 0 25 25" fill="none" xmlns="http://www.w3.org/2000/svg">
<path d="M15.8855 6.77051C17.18 6.77051 18.2293 5.72118 18.2293 4.42676C18.2293 3.13234 17.18 2.08301 15.8855 2.08301C14.5911 2.08301 13.5418 3.13234 13.5418 4.42676C13.5418 5.72118 14.5911 6.77051 15.8855 6.77051ZM11.1773 9.00087C10.5275 9.16191 10.0844 9.40483 9.72673 9.70603C9.18985 10.1582 8.75709 10.8106 8.17157 11.8351C7.88616 12.3346 7.24985 12.5082 6.75037 12.2227C6.25084 11.9373 6.07735 11.301 6.36277 10.8015C6.94532 9.78207 7.53459 8.82842 8.38475 8.11249C9.27241 7.36499 10.3586 6.94176 11.8243 6.77884C12.4366 6.71082 13.1102 6.72452 13.7421 7.00655C14.4055 7.30269 14.8895 7.83332 15.2198 8.54254C15.6644 9.49749 15.9953 10.066 16.2603 10.3952C16.3877 10.5535 16.4768 10.6269 16.5271 10.6597C16.5673 10.6859 16.5841 10.6879 16.5906 10.6886L16.5914 10.6887C16.6367 10.6943 16.7832 10.6885 17.2149 10.4977C17.4027 10.4147 17.6081 10.3144 17.859 10.1918L17.919 10.1625C18.1904 10.0299 18.5012 9.87915 18.8481 9.72488C19.3738 9.49124 19.9894 9.72801 20.2231 10.2537C20.4567 10.7794 20.22 11.395 19.6943 11.6287C19.3842 11.7664 19.1025 11.903 18.8332 12.0345L18.7652 12.0678C18.5251 12.1851 18.2835 12.3032 18.0571 12.4033C17.588 12.6106 16.9887 12.8358 16.3395 12.7568C15.6544 12.6734 15.126 12.2869 14.6914 11.7674L13.2676 14.5135L15.2362 17.0753C15.3536 17.2281 15.4263 17.4105 15.4463 17.6022L15.88 21.7669C15.9395 22.339 15.524 22.8512 14.9518 22.9108C14.3795 22.9704 13.8674 22.5548 13.8078 21.9826L13.4047 18.1111L12.209 16.5551L12.199 16.5744L12.155 16.4848L9.94538 13.6094C9.72454 13.3221 9.66892 12.9407 9.7985 12.6023L11.1773 9.00087Z" fill="#4E4FEB"/>
<path d="M9.60004 15.1074L8.83348 17.1702L5.81202 16.9299C5.23853 16.8843 4.73668 17.3123 4.69108 17.8857C4.64547 18.4592 5.0734 18.9611 5.64686 19.0067L9.45311 19.3093C9.91744 19.3463 10.3498 19.0704 10.5121 18.6338L11.0981 17.0569L9.60004 15.1074Z" fill="#4E4FEB"/>
</svg>
