<svg width="37" height="26" viewBox="0 0 37 26" fill="none" xmlns="http://www.w3.org/2000/svg">
<path d="M17.4738 2.40592H19.7596C20.2215 2.40592 20.5925 2.02705 20.5925 1.57503C20.5925 1.11511 20.2215 0.744141 19.7596 0.744141H17.4738C17.0119 0.744141 16.641 1.11511 16.641 1.57503C16.641 2.02705 17.0113 2.40592 17.4738 2.40592ZM18.6164 5.23135C10.0801 5.23135 3.10355 12.3443 2.68712 21.2515H34.5456C34.1292 12.3437 27.1526 5.23135 18.6164 5.23135ZM0.825684 22.9054L3.89754 24.9975C4.51099 25.4198 5.71417 25.7829 6.46336 25.7829H30.7701C31.5192 25.7829 32.7224 25.4198 33.3359 24.9975L36.4071 22.9054H0.825684Z" fill="#56CCF2"/>
</svg>
