<svg width="36" height="36" viewBox="0 0 36 36" fill="none" xmlns="http://www.w3.org/2000/svg">
<path d="M25.741 36H10.2592C9.534 36 8.91353 35.479 8.78814 34.7646L8.23807 31.6304C6.64618 22.5606 5.84571 13.3696 5.8457 4.16115V0.799461C5.8457 0.357972 6.20367 0 6.64516 0H29.355C29.7966 0 30.1545 0.357972 30.1545 0.799461V4.16115C30.1545 13.3696 29.354 22.5607 27.7621 31.6305L27.212 34.7647C27.0866 35.479 26.4662 36 25.741 36Z" fill="#CCEFFD"/>
<path d="M9.49362 11.3936C9.19085 11.3936 8.94891 11.6469 8.96405 11.9493C9.28653 18.3791 10.0062 24.8016 11.1162 31.1257L11.4039 32.7648C11.4194 32.8525 11.4652 32.932 11.5334 32.9893C11.6016 33.0466 11.6878 33.078 11.7769 33.078H24.2228C24.3119 33.078 24.3981 33.0466 24.4663 32.9893C24.5346 32.932 24.5804 32.8525 24.5958 32.7648L24.8834 31.1257C25.9934 24.8016 26.7131 18.3791 27.0356 11.9493C27.0508 11.6469 26.8088 11.3936 26.506 11.3936H9.49362Z" fill="#75CFF9"/>
<path d="M29.355 0H27.1819C27.6235 0 27.9814 0.357899 27.9814 0.799461V4.16115C27.9814 13.3696 27.1809 22.5607 25.589 31.6305L25.0389 34.7647C24.9136 35.479 24.2931 36 23.5679 36H25.7409C26.4662 36 27.0866 35.479 27.212 34.7646L27.7621 31.6304C29.3539 22.5606 30.1544 13.3696 30.1544 4.16108V0.799388C30.1544 0.357899 29.7965 0 29.355 0Z" fill="#AAE2FA"/>
<path d="M26.5065 11.3936H24.3335C24.6363 11.3936 24.8782 11.6469 24.8631 11.9493C24.5406 18.3791 23.8209 24.8015 22.7109 31.1256L22.4233 32.7647C22.4078 32.8525 22.362 32.932 22.2938 32.9892C22.2256 33.0465 22.1394 33.0779 22.0503 33.0779H24.2233C24.3124 33.0779 24.3986 33.0465 24.4668 32.9893C24.5351 32.932 24.5809 32.8525 24.5963 32.7647L24.8839 31.1256C25.9939 24.8015 26.7136 18.3791 27.0361 11.9493C27.0513 11.6469 26.8093 11.3936 26.5065 11.3936Z" fill="#6CBFF8"/>
</svg>
