<svg width="55" height="52" viewBox="0 0 55 52" fill="none" xmlns="http://www.w3.org/2000/svg">
<g clip-path="url(#clip0_697_5489)">
<path d="M41.2181 24.6136L41.2161 24.6116L29.3864 12.7824C28.8822 12.2778 28.2118 12 27.4987 12C26.7856 12 26.1152 12.2777 25.6108 12.7822L13.7872 24.6054C13.7832 24.6093 13.7793 24.6135 13.7753 24.6175C12.7398 25.6589 12.7416 27.3486 13.7804 28.3874C14.2549 28.8623 14.8818 29.1372 15.552 29.166C15.5791 29.1687 15.6066 29.17 15.6343 29.17H16.1057V37.8756C16.1057 39.5984 17.5074 41 19.2305 41H23.8586C24.3277 41 24.7082 40.6197 24.7082 40.1504V33.3252C24.7082 32.5391 25.3477 31.8997 26.1338 31.8997H28.8636C29.6498 31.8997 30.2891 32.5391 30.2891 33.3252V40.1504C30.2891 40.6197 30.6695 41 31.1387 41H35.7669C37.49 41 38.8916 39.5984 38.8916 37.8757V29.17H39.3288C40.0417 29.17 40.7121 28.8924 41.2168 28.3879C42.2567 27.3474 42.2571 25.6548 41.2181 24.6136Z" fill="#D9D8D8"/>
</g>
<g clip-path="url(#clip1_697_5489)">
<path d="M41.2181 24.6136L41.2161 24.6116L29.3864 12.7824C28.8822 12.2778 28.2118 12 27.4987 12C26.7856 12 26.1152 12.2777 25.6108 12.7822L13.7872 24.6054C13.7832 24.6093 13.7793 24.6135 13.7753 24.6175C12.7398 25.6589 12.7416 27.3486 13.7804 28.3874C14.2549 28.8623 14.8818 29.1372 15.552 29.166C15.5791 29.1687 15.6066 29.17 15.6343 29.17H16.1057V37.8756C16.1057 39.5984 17.5074 41 19.2305 41H23.8586C24.3277 41 24.7082 40.6197 24.7082 40.1504V33.3252C24.7082 32.5391 25.3477 31.8997 26.1338 31.8997H28.8636C29.6498 31.8997 30.2891 32.5391 30.2891 33.3252V40.1504C30.2891 40.6197 30.6695 41 31.1387 41H35.7669C37.49 41 38.8916 39.5984 38.8916 37.8757V29.17H39.3288C40.0417 29.17 40.7121 28.8924 41.2168 28.3879C42.2567 27.3474 42.2571 25.6548 41.2181 24.6136Z" fill="#BDBDBD"/>
</g>
<defs>
<clipPath id="clip0_697_5489">
<rect width="29" height="29" fill="white" transform="translate(13 12)"/>
</clipPath>
<clipPath id="clip1_697_5489">
<rect width="29" height="29" fill="white" transform="translate(13 12)"/>
</clipPath>
</defs>
</svg>
