<svg width="60" height="61" viewBox="0 0 60 61" fill="none" xmlns="http://www.w3.org/2000/svg">
<rect width="60" height="60.4655" rx="16" fill="#B1B2FF"/>
<path d="M41.7543 24.0926L35.9407 18.2457C35.8633 18.1678 35.7713 18.106 35.6701 18.0638C35.569 18.0217 35.4605 18 35.351 18C35.1299 18 34.9177 18.0884 34.7614 18.2457C34.605 18.4029 34.5171 18.6163 34.5171 18.8387C34.5171 19.0611 34.605 19.2745 34.7614 19.4318L37.0868 21.7622L35.351 23.4996L33.0339 21.1691C32.9567 21.0909 32.8648 21.0287 32.7636 20.9863C32.6624 20.9439 32.5538 20.9221 32.4442 20.9221C32.3346 20.9221 32.226 20.9439 32.1248 20.9863C32.0236 21.0287 31.9317 21.0909 31.8545 21.1691L20.2272 32.8631C20.1494 32.9408 20.0876 33.0332 20.0454 33.135C20.0033 33.2368 19.9816 33.3459 19.9816 33.4562C19.9816 33.5665 20.0033 33.6756 20.0454 33.7774C20.0876 33.8792 20.1494 33.9716 20.2272 34.0492L21.0578 34.8845L18.7406 37.215C18.6628 37.2926 18.601 37.385 18.5588 37.4868C18.5166 37.5886 18.4949 37.6978 18.4949 37.808C18.4949 37.9183 18.5166 38.0275 18.5588 38.1293C18.601 38.2311 18.6628 38.3234 18.7406 38.4011L19.5711 39.2364L17.2457 41.5668C17.1678 41.6445 17.106 41.7369 17.0639 41.8386C17.0217 41.9404 17 42.0496 17 42.1599C17 42.2701 17.0217 42.3793 17.0639 42.4811C17.106 42.5829 17.1678 42.6753 17.2457 42.7529C17.3229 42.8312 17.4147 42.8934 17.5159 42.9358C17.6171 42.9782 17.7257 43 17.8353 43C17.945 43 18.0535 42.9782 18.1547 42.9358C18.2559 42.8934 18.3478 42.8312 18.425 42.7529L20.7422 40.4141L21.5727 41.2912C21.6422 41.3996 21.7358 41.4904 21.846 41.5564C21.9563 41.6223 22.0802 41.6617 22.2082 41.6714C22.3361 41.6811 22.4645 41.6609 22.5834 41.6123C22.7022 41.5637 22.8083 41.4881 22.8932 41.3914L25.2104 39.061L26.0409 39.8962C26.1181 39.9745 26.2099 40.0367 26.3112 40.0791C26.4124 40.1215 26.5209 40.1433 26.6306 40.1433C26.7402 40.1433 26.8487 40.1215 26.95 40.0791C27.0512 40.0367 27.143 39.9745 27.2202 39.8962L38.8475 28.2023C38.9254 28.1246 38.9871 28.0322 39.0293 27.9304C39.0715 27.8286 39.0932 27.7195 39.0932 27.6092C39.0932 27.4989 39.0715 27.3898 39.0293 27.288C38.9871 27.1862 38.9254 27.0938 38.8475 27.0161L36.5304 24.6857L38.2578 22.94L40.575 25.2788C40.6522 25.357 40.7441 25.4192 40.8453 25.4616C40.9465 25.504 41.055 25.5258 41.1647 25.5258C41.2743 25.5258 41.3829 25.504 41.4841 25.4616C41.5853 25.4192 41.6771 25.357 41.7543 25.2788C41.8322 25.2011 41.894 25.1087 41.9361 25.0069C41.9783 24.9051 42 24.796 42 24.6857C42 24.5754 41.9783 24.4663 41.9361 24.3645C41.894 24.2627 41.8322 24.1703 41.7543 24.0926ZM29.0972 35.653L26.7717 33.3142C26.6357 33.1544 26.5646 32.9489 26.5727 32.7386C26.5807 32.5284 26.6674 32.329 26.8153 32.1802C26.9632 32.0315 27.1615 31.9443 27.3705 31.9362C27.5795 31.9281 27.7839 31.9996 27.9428 32.1364L30.2682 34.4752L29.0972 35.653ZM31.2732 33.4646L28.9477 31.1258C28.7913 30.9685 28.7035 30.7551 28.7035 30.5327C28.7035 30.4226 28.725 30.3135 28.7669 30.2117C28.8088 30.11 28.8703 30.0175 28.9477 29.9396C29.0251 29.8618 29.1171 29.8 29.2182 29.7578C29.3194 29.7157 29.4279 29.694 29.5374 29.694C29.7585 29.694 29.9707 29.7824 30.127 29.9396L32.4525 32.2784L31.2732 33.4646ZM33.4574 31.2677L31.132 28.929C30.9959 28.7692 30.9248 28.5636 30.9329 28.3534C30.941 28.1432 31.0276 27.9438 31.1755 27.795C31.3234 27.6462 31.5217 27.5591 31.7307 27.551C31.9398 27.5429 32.1441 27.6144 32.303 27.7512L34.6285 30.09L33.4574 31.2677Z" fill="#F6F9FF"/>
</svg>
