<svg width="20" height="20" viewBox="0 0 20 20" fill="none" xmlns="http://www.w3.org/2000/svg">
<path fill-rule="evenodd" clip-rule="evenodd" d="M6.0802 5.37166C6.0802 3.32916 7.7967 1.66666 9.90639 1.66666H14.1C16.2045 1.66666 17.9167 3.325 17.9167 5.36333V14.6267C17.9167 16.67 16.2011 18.3333 14.0914 18.3333H9.89779C7.79325 18.3333 6.0802 16.6742 6.0802 14.635V13.8517V5.37166Z" fill="#CDCDD0"/>
<path fill-rule="evenodd" clip-rule="evenodd" d="M13.3645 9.54483L10.8913 7.12066C10.6357 6.87066 10.2243 6.87066 9.96952 7.12233C9.7156 7.374 9.71644 7.77983 9.97122 8.02983L11.3255 9.35733H2.73512C2.37539 9.35733 2.08337 9.64483 2.08337 9.99983C2.08337 10.354 2.37539 10.6407 2.73512 10.6407H11.3255L9.97122 11.969C9.71644 12.219 9.7156 12.6248 9.96952 12.8765C10.0973 13.0023 10.2641 13.0657 10.4317 13.0657C10.5976 13.0657 10.7643 13.0023 10.8913 12.8782L13.3645 10.454C13.4873 10.3332 13.5567 10.1698 13.5567 9.99983C13.5567 9.829 13.4873 9.66566 13.3645 9.54483" fill="#040415"/>
</svg>
