
<svg width="26" height="26" viewBox="0 0 26 26" fill="none" xmlns="http://www.w3.org/2000/svg">
<path fill-rule="evenodd" clip-rule="evenodd" d="M6.1193 13.2374H4.56215C4.25297 13.2374 4 13.4903 4 13.7995C4 14.5078 4.21362 17.341 5.40537 19.4941C5.87758 20.3485 6.50156 21.1018 7.31106 21.5965C6.99625 21.9169 6.81636 22.3442 6.81636 22.7939C6.81636 23.2436 6.99625 23.6708 7.31106 23.9856C7.62586 24.3004 8.05871 24.4803 8.50281 24.4803H17.4972C17.9469 24.4803 18.3741 24.3004 18.6889 23.9856C19.0037 23.6708 19.1836 23.238 19.1836 22.7939C19.1836 22.3498 19.0037 21.9169 18.6889 21.6021C19.4984 21.1018 20.1168 20.3542 20.5946 19.4941C21.7864 17.341 22 14.5078 22 13.7995C22 13.4903 21.747 13.2374 21.4379 13.2374H14.1018C14.1187 13.1474 14.1299 13.0518 14.1299 12.9563C14.1299 12.1805 13.5003 11.5509 12.7245 11.5509C11.9488 11.5509 11.3192 12.1805 11.3192 12.9563C11.3192 13.0518 11.3304 13.1474 11.3473 13.2374H9.59338C9.65522 12.664 9.4416 11.95 8.92442 11.3542C8.45222 10.8145 7.85634 10.4997 7.32792 10.4379C6.88382 10.3873 6.47908 10.4997 6.18114 10.7639C5.87758 11.0281 5.70893 11.4104 5.69769 11.8545C5.68645 12.2817 5.8326 12.7764 6.13054 13.2374H6.1193ZM18.6159 16.5428C18.4416 17.9706 17.7333 18.9038 16.654 19.4884C16.3841 19.6346 16.2829 19.9775 16.4291 20.253C16.5753 20.5228 16.9182 20.624 17.1936 20.4778C18.5878 19.7189 19.5097 18.5215 19.7289 16.6777C19.7683 16.3685 19.549 16.0874 19.2399 16.0537C18.9307 16.0144 18.6496 16.2336 18.6159 16.5428ZM16.4966 9.58901C16.3673 9.67333 16.2099 9.69581 16.0637 9.72392C15.8951 9.75765 15.7264 9.797 15.5746 9.84759C15.198 9.98251 14.8944 10.213 14.7483 10.6683C14.6471 10.9888 14.6415 11.3317 14.782 11.669C14.9507 12.0849 15.3723 12.529 16.2942 12.8214C16.7383 12.9619 17.3623 12.8551 17.975 12.5178C18.7733 12.0793 19.549 11.2755 19.802 10.466C19.9763 9.90381 19.7626 9.1955 19.3635 8.72892C19.06 8.37476 18.6552 8.17239 18.2954 8.17801C17.5984 8.18926 17.2217 8.53217 16.935 8.9594C16.8563 9.07745 16.7833 9.20675 16.7046 9.3248C16.6427 9.42598 16.5865 9.52717 16.4966 9.58338V9.58901ZM21.258 11.1574C21.4772 11.3766 21.4772 11.7308 21.258 11.95C21.0387 12.1693 20.6846 12.1693 20.4653 11.95C20.2461 11.7308 20.2461 11.3766 20.4653 11.1574C20.6846 10.9382 21.0387 10.9382 21.258 11.1574ZM13.3879 10.0331C13.6071 10.2523 13.6071 10.6065 13.3879 10.8257C13.1686 11.045 12.8145 11.045 12.5896 10.8257C12.3704 10.6065 12.3704 10.2523 12.5896 10.0331C12.8089 9.81387 13.163 9.81387 13.3879 10.0331ZM9.37976 7.09869C9.28982 7.04247 9.2336 6.94129 9.17177 6.8401C9.09869 6.72205 9.02561 6.59275 8.94129 6.4747C8.65459 6.04747 8.27795 5.69894 7.58089 5.69332C7.22111 5.69332 6.81636 5.89007 6.5128 6.24984C6.11368 6.71643 5.90006 7.41911 6.07433 7.98126C6.3273 8.79076 7.10306 9.59463 7.90131 10.0331C8.50843 10.3648 9.13804 10.4772 9.58214 10.3367C10.5041 10.0443 10.9257 9.60025 11.0943 9.18426C11.2349 8.84697 11.2292 8.50406 11.128 8.18363C10.9819 7.72267 10.6839 7.49781 10.3017 7.3629C10.1499 7.30668 9.98126 7.27295 9.81262 7.23922C9.66084 7.2055 9.50906 7.18301 9.37976 7.10431V7.09869ZM13.5509 4.24859C13.1518 4.24859 12.7695 4.42848 12.4716 4.76015C12.1118 5.15365 11.8645 5.78326 11.8645 6.49719C11.8645 7.21112 12.1118 7.84072 12.4716 8.23423C12.7695 8.5659 13.1518 8.74578 13.5509 8.74578C13.95 8.74578 14.3323 8.5659 14.6302 8.23423C14.99 7.84072 15.2374 7.21112 15.2374 6.49719C15.2374 5.78326 14.99 5.15365 14.6302 4.76015C14.3323 4.42848 13.95 4.24859 13.5509 4.24859ZM20.6958 7.22236C20.9151 7.4416 20.9151 7.79575 20.6958 8.01499C20.4766 8.23423 20.1224 8.23423 19.9032 8.01499C19.6839 7.79575 19.6839 7.4416 19.9032 7.22236C20.1224 7.00312 20.4766 7.00312 20.6958 7.22236ZM16.7608 6.66021C16.98 6.87945 16.98 7.2336 16.7608 7.45284C16.5415 7.67208 16.1874 7.67208 15.9681 7.45284C15.7489 7.2336 15.7489 6.87945 15.9681 6.66021C16.1874 6.44097 16.5415 6.44097 16.7608 6.66021ZM18.3292 3.68645C17.5534 3.68645 16.9238 4.31605 16.9238 5.09182C16.9238 5.86758 17.5534 6.49719 18.3292 6.49719C19.1049 6.49719 19.7345 5.86758 19.7345 5.09182C19.7345 4.31605 19.1049 3.68645 18.3292 3.68645ZM9.89694 2C9.12117 2 8.49157 2.62961 8.49157 3.40537C8.49157 4.18114 9.12117 4.81074 9.89694 4.81074C10.6727 4.81074 11.3023 4.18114 11.3023 3.40537C11.3023 2.62961 10.6727 2 9.89694 2ZM7.20425 3.84947C7.42349 4.06871 7.42349 4.42286 7.20425 4.6421C6.98501 4.86134 6.63086 4.86134 6.41162 4.6421C6.19238 4.42286 6.19238 4.06871 6.41162 3.84947C6.63086 3.63023 6.98501 3.63023 7.20425 3.84947Z" fill="#4E4FEB"/>
</svg>
