<svg width="23" height="23" viewBox="0 0 23 23" fill="none" xmlns="http://www.w3.org/2000/svg">
<g clip-path="url(#clip0_1676_9637)">
<path d="M4.87327 21.3631C4.69316 22.0641 5.11544 22.7784 5.81645 22.9585C5.92585 22.9866 6.03553 23 6.1435 23C6.72734 23 7.25985 22.6069 7.41188 22.0153L8.04778 19.5404L5.51333 18.8719L4.87327 21.3631ZM12.7774 18.4502L10.2928 19.285L11.1605 21.8398C11.3458 22.3854 11.8554 22.7292 12.4013 22.7292C12.5411 22.7292 12.6832 22.7066 12.8229 22.6592C13.5082 22.4264 13.8751 21.6821 13.6423 20.9968L12.7774 18.4502Z" fill="#5FD9B3"/>
<path d="M0.922778 15.9737C0.231483 16.188 -0.15526 16.9222 0.059052 17.6135C0.233334 18.1756 0.751227 18.5363 1.3104 18.5363C1.44212 18.5363 1.57307 18.5163 1.69885 18.4772L4.25347 17.6853L3.43672 15.1943L0.922778 15.9737Z" fill="#00CE8E"/>
<path d="M16.707 15.4639L14.789 17.2503L16.6228 19.2292C16.8811 19.5079 17.2322 19.6489 17.5844 19.6489C17.9147 19.6493 18.2329 19.5245 18.4749 19.2996C19.0057 18.8077 19.0373 17.9785 18.5453 17.4476L16.707 15.4639Z" fill="#5FD9B3"/>
<path d="M1.20206 12.1147L3.62085 13.8642L5.08651 11.6895L2.7382 9.99093C2.15172 9.56675 1.33247 9.69832 0.908239 10.2847C0.484058 10.8712 0.615579 11.6904 1.20206 12.1147Z" fill="#00CE8E"/>
<path d="M21.3432 12.2468L19.019 11.2607L17.9784 13.6665L20.3194 14.6597C20.4811 14.7286 20.655 14.7641 20.8307 14.7642C21.3409 14.7642 21.826 14.4644 22.0378 13.9652C22.3204 13.2989 22.0095 12.5295 21.3432 12.2468Z" fill="#5FD9B3"/>
<path d="M6.29688 6.96631C5.70434 7.38198 5.56102 8.19933 5.97669 8.79182L7.34586 10.7434L9.90728 9.83071L8.12235 7.2865C7.70668 6.69397 6.88942 6.55064 6.29688 6.96631Z" fill="#00CE8E"/>
<path d="M21.6895 6.80957H21.6875L19.3929 6.81295L19.4167 9.43398L21.6914 9.43064C22.4152 9.42958 23.0011 8.84199 23 8.11816C22.9989 7.39503 22.4124 6.80957 21.6895 6.80957Z" fill="#5FD9B3"/>
<path d="M10.8842 6.58663L12.388 4.39668L10.8845 2.95235C10.3626 2.45093 9.53295 2.46759 9.03153 2.98951C8.53011 3.51148 8.54673 4.3411 9.06869 4.84252L10.8842 6.58663Z" fill="#00CE8E"/>
<path d="M20.908 3.77589C21.3747 3.22273 21.3047 2.39589 20.7515 1.92913C20.1983 1.46228 19.3715 1.53235 18.9048 2.08555L17.2691 4.02398L19.0782 5.94437L20.908 3.77589Z" fill="#5FD9B3"/>
<path d="M16.2432 1.31054C16.2432 0.586754 15.6565 0 14.9327 0C14.2089 0 13.6221 0.586754 13.6221 1.31054V3.71461L16.2432 3.60563V1.31054Z" fill="#00CE8E"/>
<path d="M15.4961 2.77732C15.3668 2.76759 15.2371 2.76272 15.1074 2.7627C12.2697 2.7627 9.99917 5.06954 9.99917 7.87092C9.99917 9.05599 9.03512 10.0201 7.85009 10.0201C5.02886 10.0201 2.74182 12.3072 2.74182 15.1284C2.74182 15.9626 2.94183 16.75 3.29641 17.4454C4.14103 19.102 5.86302 20.2367 7.85009 20.2367C14.6666 20.2367 20.2157 14.6912 20.2157 7.87092C20.2157 5.18052 18.1358 2.97594 15.4961 2.77732Z" fill="#5FD9B3"/>
<path d="M15.4961 2.77752C15.4967 2.77877 15.4965 2.77817 15.4961 2.77752C12.496 2.55192 9.99918 4.93137 9.99918 7.87112C9.99918 9.05966 9.04665 10.0221 7.8581 10.0203C5.03317 10.0159 2.74182 12.3047 2.74182 15.1286C2.74182 15.9628 2.94183 16.7502 3.29641 17.4456C3.75192 18.3391 4.46298 19.0803 5.33286 19.5739C5.67263 18.2516 6.64104 17.1806 7.92316 16.7114C11.9414 15.2409 14.9908 11.7417 15.8233 7.45906C16.1077 5.9959 16.7634 4.63029 17.7247 3.49112L17.7248 3.49107C17.0649 3.09665 16.305 2.83898 15.4961 2.77752Z" fill="#00CE8E"/>
<path d="M12.8252 7.81499C12.98 7.2379 12.5179 6.61255 11.7933 6.41824C11.0686 6.22393 10.3557 6.53424 10.201 7.11133C10.0462 7.68842 10.5082 8.31377 11.2329 8.50808C11.9576 8.70239 12.6705 8.39208 12.8252 7.81499Z" fill="#FF8E9E"/>
<path d="M19.939 9.72124C20.0937 9.14415 19.6317 8.5188 18.907 8.32449C18.1824 8.13018 17.4695 8.44049 17.3147 9.01758C17.16 9.59467 17.622 10.22 18.3467 10.4143C19.0713 10.6086 19.7842 10.2983 19.939 9.72124Z" fill="#FF8E9E"/>
<path d="M12.7782 5.79011C12.6893 5.76633 12.5946 5.77882 12.5149 5.82484C12.4352 5.87085 12.377 5.94663 12.3531 6.03552L12.2094 6.57193C12.1976 6.61595 12.1946 6.66187 12.2005 6.70706C12.2065 6.75225 12.2213 6.79583 12.2441 6.8353C12.2669 6.87477 12.2972 6.90937 12.3334 6.93712C12.3695 6.96486 12.4108 6.98521 12.4548 6.99701C12.4989 7.00881 12.5448 7.01182 12.59 7.00586C12.6352 6.99991 12.6787 6.98512 12.7182 6.96233C12.7577 6.93954 12.7923 6.9092 12.82 6.87304C12.8478 6.83688 12.8681 6.7956 12.8799 6.75158L13.0237 6.21517C13.0475 6.12626 13.035 6.03153 12.989 5.95182C12.9429 5.87211 12.8671 5.81394 12.7782 5.79011ZM18.3612 7.28604C18.1762 7.23666 17.9857 7.34629 17.9361 7.53145L17.7924 8.06785C17.7806 8.11188 17.7776 8.1578 17.7835 8.20299C17.7895 8.24818 17.8043 8.29175 17.8271 8.33122C17.8498 8.3707 17.8802 8.40529 17.9163 8.43304C17.9525 8.46079 17.9938 8.48114 18.0378 8.49294C18.0818 8.50473 18.1278 8.50774 18.1729 8.50179C18.2181 8.49584 18.2617 8.48105 18.3012 8.45826C18.3407 8.43547 18.3753 8.40512 18.403 8.36896C18.4307 8.3328 18.4511 8.29153 18.4629 8.2475L18.6066 7.7111C18.6304 7.62219 18.618 7.52746 18.572 7.44775C18.5259 7.36803 18.4501 7.30987 18.3612 7.28604ZM15.8827 7.30298C15.804 7.35599 15.7149 7.39152 15.6214 7.40718C15.5278 7.42284 15.432 7.41827 15.3404 7.39377C15.2488 7.36917 15.1636 7.32522 15.0904 7.26489C15.0172 7.20455 14.9578 7.12923 14.9162 7.04401C14.8962 7.00306 14.8683 6.96646 14.8341 6.93629C14.8 6.90613 14.7602 6.883 14.7171 6.86821C14.6739 6.85343 14.6283 6.84729 14.5828 6.85013C14.5373 6.85298 14.4929 6.86476 14.4519 6.88481C14.3692 6.92527 14.306 6.99692 14.2762 7.08399C14.2463 7.17107 14.2523 7.26643 14.2927 7.34911C14.3779 7.52343 14.4995 7.67747 14.6492 7.80084C14.7989 7.92422 14.9734 8.01407 15.1608 8.06434C15.2764 8.0953 15.3943 8.11057 15.5117 8.11057C15.7791 8.11057 16.0435 8.03143 16.2701 7.87904C16.3465 7.82766 16.3993 7.74805 16.417 7.65771C16.4347 7.56737 16.4158 7.47371 16.3644 7.39734C16.339 7.35951 16.3063 7.32705 16.2684 7.30184C16.2304 7.27662 16.1878 7.25913 16.1431 7.25037C16.0983 7.24161 16.0523 7.24174 16.0076 7.25077C15.963 7.2598 15.9205 7.27753 15.8827 7.30298Z" fill="#313D40"/>
</g>
<defs>
<clipPath id="clip0_1676_9637">
<rect width="23" height="23" fill="white"/>
</clipPath>
</defs>
</svg>
