<svg width="36" height="37" viewBox="0 0 36 37" fill="none" xmlns="http://www.w3.org/2000/svg">
<path d="M16.7446 5.1671C16.4079 4.68074 15.8186 4.44689 15.248 4.58716C8.68158 6.20538 4.09814 12.0703 4.09814 18.8519C4.09814 26.9524 10.6926 33.5469 18.7932 33.5469C25.5747 33.5469 31.4396 28.9634 33.0579 22.397C33.1981 21.8264 32.9643 21.2371 32.4779 20.9004C32.0009 20.573 31.3554 20.5824 30.8784 20.9191C29.1479 22.1445 27.1181 22.7992 25.0041 22.7992C19.4011 22.7992 14.8458 18.2439 14.8458 12.6409C14.8458 10.5269 15.5006 8.49709 16.7259 6.76665C17.0627 6.28959 17.072 5.64416 16.7446 5.1671Z" fill="#6155A6"/>
</svg>
