<svg width="390" height="66" viewBox="0 0 390 66" fill="none" xmlns="http://www.w3.org/2000/svg">
<path d="M-0.00390625 54.5075C-0.00390625 33.5207 17.0093 16.5 37.9961 16.5H135.782C154.147 16.5 173.748 1.12899 192.083 0.0813435C193.018 0.0278785 193.989 0 194.996 0C196.003 0 196.974 0.0278785 197.91 0.0813438C216.245 1.12899 235.845 16.5 254.21 16.5H351.996C372.983 16.5 389.996 33.5207 389.996 54.5075C389.996 60.1547 389.996 64.2136 389.996 64.5C389.996 65.5 -0.00390625 65.5 -0.00390625 64.5C-0.00390625 64.2136 -0.00390625 60.1547 -0.00390625 54.5075Z" fill="#F2F2F2"/>
<path d="M7.99687 62.1521C7.99467 41.1662 25.0094 24.1545 45.9953 24.1545H136.973C155.311 24.1545 175.224 9.03763 193.555 8.52014C194.027 8.50681 194.508 8.5 194.998 8.5C195.488 8.5 195.969 8.50681 196.441 8.52014C214.771 9.03764 234.685 24.1545 253.022 24.1545H343.998C364.985 24.1545 381.998 41.1678 381.998 62.1546C381.998 63.8715 381.998 64.9219 381.998 65C381.998 65.5 8.0003 65.5 7.99773 65C7.99732 64.9219 7.99705 63.8705 7.99687 62.1521Z" fill="white"/>
<circle cx="194.5" cy="20" r="3.5" fill="#7E7E7E"/>
</svg>
