<svg width="33" height="33" viewBox="0 0 33 33" fill="none" xmlns="http://www.w3.org/2000/svg">
<path d="M11.1247 33H3.3001C3.11318 33 2.9585 32.8453 2.9585 32.6584V24.4729C2.9585 23.5254 3.72549 22.752 4.67939 22.752H11.0667C11.086 33.2191 11.0087 32.6971 11.1247 33ZM21.2438 15.2947V32.6584C21.2438 32.8453 21.0892 33 20.9022 33H12.0979C11.911 33 11.7563 32.8453 11.7563 32.6584V15.2947C11.7563 14.3473 12.5233 13.5738 13.4772 13.5738H19.5294C20.4769 13.5738 21.2438 14.3473 21.2438 15.2947ZM30.0417 20.6766V32.6584C30.0417 32.8453 29.887 33 29.7001 33H21.869C21.9851 32.6971 21.9077 33.3932 21.9335 18.9557H28.3272C29.2683 18.9557 30.0417 19.7291 30.0417 20.6766ZM19.7614 6.17461C19.6776 6.25195 19.639 6.36797 19.6647 6.47754L20.0192 8.54648C20.0901 8.93965 19.929 9.32637 19.6132 9.5584C19.2716 9.80332 18.8462 9.80977 18.5239 9.63574L16.6612 8.6625C16.5646 8.61094 16.4421 8.61094 16.339 8.6625L14.4763 9.63574C14.1282 9.82266 13.7157 9.79043 13.387 9.5584C13.0647 9.32637 12.9101 8.93965 12.981 8.54648L13.3354 6.47754C13.3548 6.36797 13.3161 6.25195 13.2388 6.17461L11.737 4.70508C11.4534 4.42793 11.3567 4.02187 11.4728 3.64805C11.5952 3.26777 11.9175 3.00352 12.3042 2.94551L14.386 2.64902C14.502 2.62969 14.5987 2.55879 14.6438 2.46211L15.5784 0.580078C15.7524 0.219141 16.1069 0 16.5001 0C16.8933 0 17.2478 0.219141 17.4218 0.573633L18.3499 2.45566C18.4015 2.55234 18.4981 2.62969 18.6077 2.64258L20.6896 2.93906C21.0827 2.99707 21.3985 3.26777 21.521 3.6416C21.6435 4.01543 21.5403 4.42148 21.2567 4.69863L19.7614 6.17461Z" fill="#C2EFB3"/>
</svg>
