<svg width="25" height="25" viewBox="0 0 25 25" fill="none" xmlns="http://www.w3.org/2000/svg">
<path d="M19.7918 4.16683H18.7502V3.12516C18.7502 2.50016 18.3335 2.0835 17.7085 2.0835C17.0835 2.0835 16.6668 2.50016 16.6668 3.12516V4.16683H8.3335V3.12516C8.3335 2.50016 7.91683 2.0835 7.29183 2.0835C6.66683 2.0835 6.25016 2.50016 6.25016 3.12516V4.16683H5.2085C3.43766 4.16683 2.0835 5.521 2.0835 7.29183V8.3335H22.9168V7.29183C22.9168 5.521 21.5627 4.16683 19.7918 4.16683ZM2.0835 19.7918C2.0835 21.5627 3.43766 22.9168 5.2085 22.9168H19.7918C21.5627 22.9168 22.9168 21.5627 22.9168 19.7918V10.4168H2.0835V19.7918ZM17.7085 12.5002C18.3335 12.5002 18.7502 12.9168 18.7502 13.5418C18.7502 14.1668 18.3335 14.5835 17.7085 14.5835C17.0835 14.5835 16.6668 14.1668 16.6668 13.5418C16.6668 12.9168 17.0835 12.5002 17.7085 12.5002ZM17.7085 16.6668C18.3335 16.6668 18.7502 17.0835 18.7502 17.7085C18.7502 18.3335 18.3335 18.7502 17.7085 18.7502C17.0835 18.7502 16.6668 18.3335 16.6668 17.7085C16.6668 17.0835 17.0835 16.6668 17.7085 16.6668ZM12.5002 12.5002C13.1252 12.5002 13.5418 12.9168 13.5418 13.5418C13.5418 14.1668 13.1252 14.5835 12.5002 14.5835C11.8752 14.5835 11.4585 14.1668 11.4585 13.5418C11.4585 12.9168 11.8752 12.5002 12.5002 12.5002ZM12.5002 16.6668C13.1252 16.6668 13.5418 17.0835 13.5418 17.7085C13.5418 18.3335 13.1252 18.7502 12.5002 18.7502C11.8752 18.7502 11.4585 18.3335 11.4585 17.7085C11.4585 17.0835 11.8752 16.6668 12.5002 16.6668ZM7.29183 12.5002C7.91683 12.5002 8.3335 12.9168 8.3335 13.5418C8.3335 14.1668 7.91683 14.5835 7.29183 14.5835C6.66683 14.5835 6.25016 14.1668 6.25016 13.5418C6.25016 12.9168 6.66683 12.5002 7.29183 12.5002ZM7.29183 16.6668C7.91683 16.6668 8.3335 17.0835 8.3335 17.7085C8.3335 18.3335 7.91683 18.7502 7.29183 18.7502C6.66683 18.7502 6.25016 18.3335 6.25016 17.7085C6.25016 17.0835 6.66683 16.6668 7.29183 16.6668Z" fill="#4E4FEB"/>
</svg>
