<svg width="19" height="17" viewBox="0 0 19 17" fill="none" xmlns="http://www.w3.org/2000/svg">
<g clip-path="url(#clip0_398_2348)">
<path d="M10.6174 3.88118C11.4424 3.88118 12.1174 3.24368 12.1174 2.46452C12.1174 1.68535 11.4424 1.04785 10.6174 1.04785C9.79241 1.04785 9.11741 1.68535 9.11741 2.46452C9.11741 3.24368 9.79241 3.88118 10.6174 3.88118ZM8.23991 12.3812L8.66741 10.6104L10.2424 12.027V15.5687C10.2424 15.9583 10.5799 16.277 10.9924 16.277C11.4049 16.277 11.7424 15.9583 11.7424 15.5687V11.5737C11.7424 11.1841 11.5774 10.8158 11.2774 10.5466L10.1674 9.54785L10.6174 7.42285C11.4199 8.30118 12.5824 8.9316 13.8874 9.12993C14.3374 9.19368 14.7424 8.85368 14.7424 8.4216C14.7424 8.07452 14.4724 7.7841 14.1049 7.72743C12.9649 7.55035 12.0199 6.91285 11.5174 6.07702L10.7674 4.94368C10.4674 4.51868 10.0174 4.23535 9.49241 4.23535C9.26741 4.23535 9.11741 4.30618 8.89241 4.30618L5.90741 5.49618C5.35241 5.72285 4.99241 6.23285 4.99241 6.8066V8.48535C4.99241 8.87493 5.32991 9.19368 5.74241 9.19368C6.15491 9.19368 6.49241 8.87493 6.49241 8.48535V6.78535L7.84241 6.28952L6.64241 12.027L3.70241 11.4604C3.29741 11.3824 2.89991 11.6304 2.81741 12.0128V12.0412C2.73491 12.4237 2.99741 12.7991 3.40241 12.877L6.48491 13.4579C7.27991 13.6066 8.05991 13.132 8.23991 12.3812Z" fill="black" fill-opacity="0.6"/>
</g>
<defs>
<clipPath id="clip0_398_2348">
<rect width="18" height="17" fill="white" transform="translate(0.5)"/>
</clipPath>
</defs>
</svg>
