<svg width="22" height="20" viewBox="0 0 22 20" fill="none" xmlns="http://www.w3.org/2000/svg">
<path d="M21.0724 8.73307L1.52622 0.10783C1.14229 -0.0646313 0.709487 0.0647128 0.423248 0.426964C0.137057 0.789251 0.0532878 1.33265 0.206851 1.80703L2.24441 8.11276C2.35033 8.44047 2.60712 8.65547 2.89272 8.65547H8.26962C8.84904 8.65547 9.31674 9.23335 9.31674 9.94926C9.31674 10.6651 8.84904 11.243 8.26962 11.243H2.89272C2.60712 11.243 2.35033 11.458 2.24441 11.7858L0.206851 18.0915C0.0532948 18.5659 0.137057 19.1093 0.423255 19.4715C0.625718 19.7303 0.89794 19.8683 1.17718 19.8683C1.29584 19.8683 1.41455 19.8424 1.52622 19.7906L21.0724 11.1654C21.4912 10.9843 21.7704 10.4927 21.7704 9.94926C21.7704 9.40587 21.4912 8.91422 21.0724 8.73307Z" fill="white"/>
</svg>
