<svg width="30" height="30" viewBox="0 0 30 30" fill="none" xmlns="http://www.w3.org/2000/svg">
<path d="M25.0724 13.7331L5.52622 5.10783C5.14229 4.93537 4.70949 5.06471 4.42325 5.42696C4.13706 5.78925 4.05329 6.33265 4.20685 6.80703L6.24441 13.1128C6.35033 13.4405 6.60712 13.6555 6.89272 13.6555H12.2696C12.849 13.6555 13.3167 14.2333 13.3167 14.9493C13.3167 15.6651 12.849 16.243 12.2696 16.243H6.89272C6.60712 16.243 6.35033 16.458 6.24441 16.7858L4.20685 23.0915C4.05329 23.5659 4.13706 24.1093 4.42325 24.4715C4.62572 24.7303 4.89794 24.8683 5.17718 24.8683C5.29584 24.8683 5.41455 24.8424 5.52622 24.7906L25.0724 16.1654C25.4912 15.9843 25.7704 15.4927 25.7704 14.9493C25.7704 14.4059 25.4912 13.9142 25.0724 13.7331Z" fill="white"/>
</svg>
