<svg width="31" height="30" viewBox="0 0 31 30" fill="none" xmlns="http://www.w3.org/2000/svg">
<g clip-path="url(#clip0_5218_7945)">
<path d="M27.0836 20.3265C26.9037 20.2416 26.708 20.1954 26.5091 20.1908C26.3102 20.1863 26.1126 20.2235 25.929 20.3C25.9122 20.3071 25.8958 20.3145 25.8797 20.3224C23.2787 21.3797 20.4205 21.3704 17.8244 20.2946C15.209 19.2109 13.1727 17.1745 12.0904 14.5606C10.9586 11.8269 11.0269 8.72098 12.2758 6.04395C12.4379 5.70152 12.4568 5.31656 12.329 4.95996C12.2667 4.78441 12.1701 4.62297 12.045 4.48498C11.9198 4.34699 11.7685 4.23519 11.5998 4.15605C11.2367 3.98438 10.8158 3.97459 10.4501 4.12746C7.12697 5.49123 4.53437 8.06613 3.1498 11.3779C1.76523 14.6897 1.75451 18.3418 3.11957 21.6616C4.48463 24.9814 7.06211 27.5715 10.3772 28.9547C12.0471 29.6515 13.8034 30 15.5601 30C17.2909 30 19.022 29.6617 20.6712 28.9849C23.8138 27.6953 26.3317 25.2897 27.7614 22.2111C28.0935 21.5051 27.79 20.6602 27.0836 20.3265ZM27.0173 3.766H25.5642L27.6658 1.47064C27.7809 1.34503 27.8569 1.18863 27.8846 1.02053C27.9122 0.852435 27.8903 0.679923 27.8216 0.524063C27.7528 0.368128 27.6401 0.235564 27.4973 0.142516C27.3545 0.0494685 27.1878 -4.71568e-05 27.0173 3.36994e-08H23.5691C23.0837 3.36994e-08 22.6902 0.393106 22.6902 0.878027C22.6902 1.36295 23.0837 1.75605 23.5691 1.75605H25.0222L22.9206 4.05141C22.8055 4.17702 22.7295 4.33342 22.7018 4.50152C22.6742 4.66962 22.6961 4.84213 22.7648 4.99799C22.8336 5.15393 22.9463 5.28649 23.0891 5.37954C23.2319 5.47259 23.3987 5.5221 23.5691 5.52205H27.0174C27.5028 5.52205 27.8963 5.12895 27.8963 4.64402C27.8963 4.1591 27.5027 3.766 27.0173 3.766ZM16.2705 6.5359C16.3393 6.69184 16.4519 6.8244 16.5947 6.91745C16.7376 7.0105 16.9043 7.06001 17.0748 7.05996H19.8308C20.3162 7.05996 20.7097 6.66686 20.7097 6.18193C20.7097 5.69701 20.3162 5.30391 19.8308 5.30391H19.0699L20.4794 3.76453C20.5944 3.63892 20.6705 3.48251 20.6981 3.31442C20.7258 3.14632 20.7039 2.97381 20.6351 2.81795C20.5663 2.66201 20.4536 2.52944 20.3108 2.4364C20.168 2.34335 20.0012 2.29384 19.8308 2.29389H17.0748C16.5894 2.29389 16.1959 2.68699 16.1959 3.17191C16.1959 3.65684 16.5894 4.04994 17.0748 4.04994H17.8357L16.4262 5.58932C16.3111 5.71493 16.2351 5.87133 16.2075 6.03943C16.1798 6.20753 16.2017 6.38004 16.2705 6.5359ZM21.9541 11.7019C22.0229 11.8579 22.1355 11.9904 22.2783 12.0835C22.4211 12.1765 22.5879 12.226 22.7584 12.226H25.5144C25.9998 12.226 26.3933 11.8329 26.3933 11.348C26.3933 10.863 25.9998 10.4699 25.5144 10.4699H24.7535L26.163 8.93057C26.278 8.80495 26.354 8.64855 26.3817 8.48045C26.4094 8.31236 26.3875 8.13984 26.3187 7.98398C26.2499 7.82804 26.1372 7.69548 25.9944 7.60243C25.8516 7.50938 25.6848 7.45987 25.5144 7.45992H22.7584C22.273 7.45992 21.8795 7.85303 21.8795 8.33795C21.8795 8.82287 22.273 9.21598 22.7584 9.21598H23.5193L22.1098 10.7554C21.9947 10.881 21.9187 11.0374 21.8911 11.2055C21.8634 11.3736 21.8853 11.5461 21.9541 11.7019Z" fill="#FFBE55"/>
</g>
<defs>
<clipPath id="clip0_5218_7945">
<rect width="30" height="30" fill="white"/>
</clipPath>
</defs>
</svg>
