<svg width="512" height="512" viewBox="0 0 512 512" fill="none" xmlns="http://www.w3.org/2000/svg">
<path fill-rule="evenodd" clip-rule="evenodd" d="M105.184 362.022C105.184 323.453 192.852 292.213 301.027 292.213C409.202 292.213 496.899 323.452 496.899 362.022V426.159C496.899 464.728 409.202 495.968 301.027 495.968C192.852 495.968 105.184 464.729 105.184 426.159V362.022Z" fill="#FE9923"/>
<path fill-rule="evenodd" clip-rule="evenodd" d="M301.027 292.213C409.201 292.213 496.899 323.452 496.899 362.022C496.899 400.562 409.202 431.831 301.027 431.831C192.852 431.831 105.184 400.563 105.184 362.022C105.184 323.453 192.852 292.213 301.027 292.213Z" fill="#FECD3D"/>
<path fill-rule="evenodd" clip-rule="evenodd" d="M301.027 292.213C333.953 292.213 364.989 295.093 392.215 300.212V304.837C392.215 343.406 304.518 374.646 196.372 374.646C163.62 374.646 132.759 371.796 105.621 366.734C105.332 365.18 105.186 363.603 105.185 362.022C105.184 323.453 192.852 292.213 301.027 292.213Z" fill="#CEA732"/>
<path fill-rule="evenodd" clip-rule="evenodd" d="M301.027 324.82C387.095 324.82 456.846 341.487 456.846 362.022C456.846 382.558 387.095 399.195 301.027 399.195C214.988 399.195 145.208 382.557 145.208 362.022C145.208 341.487 214.987 324.82 301.027 324.82Z" fill="#FEA832"/>
<path fill-rule="evenodd" clip-rule="evenodd" d="M301.027 324.82C329.532 324.82 356.263 326.653 379.271 329.852C351.028 356.059 279.794 374.646 196.372 374.646C181.072 374.646 166.209 374.035 151.927 372.843C147.564 369.411 145.208 365.775 145.208 362.023C145.208 341.487 214.987 324.82 301.027 324.82Z" fill="#CE8829"/>
<path d="M443.931 439.742V473.89C449.952 471.592 455.566 469.178 460.685 466.589V439.713L443.931 439.742ZM400.155 486.369C394.602 487.529 389.026 488.577 383.43 489.511V456.963L400.155 456.992V486.369ZM339.654 494.6C334.157 495.007 328.572 495.298 322.929 495.531V464.466L339.654 464.524V494.6ZM279.153 495.531C273.481 495.298 267.896 495.007 262.399 494.6V464.495H279.153V495.531ZM218.623 489.51C213.027 488.576 207.451 487.529 201.898 486.368V456.961L218.623 456.99V489.51ZM158.122 473.891C152.101 471.593 146.487 469.179 141.368 466.59V439.743L158.122 439.714V473.891Z" fill="#C85929"/>
<path fill-rule="evenodd" clip-rule="evenodd" d="M0.5 223.946C0.5 185.377 88.197 154.108 196.372 154.108C304.517 154.108 392.215 185.377 392.215 223.946V288.083C392.215 326.623 304.518 357.892 196.372 357.892C88.197 357.892 0.5 326.623 0.5 288.083V223.946Z" fill="#FE9923"/>
<path fill-rule="evenodd" clip-rule="evenodd" d="M196.372 154.108C304.517 154.108 392.215 185.377 392.215 223.946C392.215 262.486 304.518 293.754 196.372 293.754C88.197 293.755 0.5 262.487 0.5 223.946C0.5 185.377 88.197 154.108 196.372 154.108Z" fill="#FECD3D"/>
<path fill-rule="evenodd" clip-rule="evenodd" d="M196.372 154.108C304.517 154.108 392.215 185.377 392.215 223.946C392.215 227.727 391.371 231.45 389.714 235.086C369.033 237.442 346.985 238.693 324.094 238.693C204.692 238.693 107.891 204.196 107.891 161.642C134.446 156.842 164.521 154.108 196.372 154.108Z" fill="#CEA732"/>
<path fill-rule="evenodd" clip-rule="evenodd" d="M196.372 186.744C282.411 186.744 352.191 203.411 352.191 223.946C352.191 244.481 282.411 261.119 196.372 261.119C110.304 261.119 40.553 244.481 40.553 223.946C40.553 203.411 110.303 186.744 196.372 186.744Z" fill="#FEA832"/>
<path fill-rule="evenodd" clip-rule="evenodd" d="M196.372 186.744C282.411 186.744 352.191 203.411 352.191 223.946C352.191 229.094 347.77 234.039 339.771 238.489C334.594 238.635 329.358 238.693 324.093 238.693C233.836 238.693 156.523 219.001 124.12 190.99C145.731 188.285 170.281 186.744 196.372 186.744Z" fill="#CE8829"/>
<path d="M339.276 301.667V335.815C345.297 333.517 350.911 331.074 356.03 328.514V301.638L339.276 301.667ZM295.5 348.293C289.947 349.453 284.371 350.501 278.775 351.434V318.886L295.5 318.915V348.293ZM234.97 356.525C229.473 356.932 223.917 357.223 218.245 357.456V326.391L234.97 326.42V356.525ZM174.469 357.455C168.826 357.222 163.241 356.931 157.715 356.524V326.42L174.469 326.391V357.455ZM113.939 351.434C108.344 350.498 102.768 349.45 97.214 348.293V318.886L113.939 318.915V351.434ZM53.467 335.815C47.417 333.517 41.832 331.074 36.684 328.514V301.667L53.467 301.638V335.815Z" fill="#C85929"/>
<path fill-rule="evenodd" clip-rule="evenodd" d="M105.184 85.841C105.184 47.301 192.852 16.032 301.027 16.032C409.202 16.032 496.899 47.3 496.899 85.841V150.007C496.899 188.547 409.202 219.816 301.027 219.816C192.852 219.816 105.184 188.548 105.184 150.007V85.841Z" fill="#FE9923"/>
<path fill-rule="evenodd" clip-rule="evenodd" d="M301.027 16.032C409.201 16.032 496.899 47.3 496.899 85.841C496.899 124.41 409.202 155.679 301.027 155.679C192.852 155.679 105.184 124.41 105.184 85.841C105.184 47.301 192.852 16.032 301.027 16.032Z" fill="#FECD3D"/>
<path fill-rule="evenodd" clip-rule="evenodd" d="M301.027 48.668C387.095 48.668 456.846 65.306 456.846 85.841C456.846 106.406 387.095 123.043 301.027 123.043C214.988 123.043 145.208 106.405 145.208 85.841C145.208 65.306 214.987 48.668 301.027 48.668Z" fill="#FEA832"/>
<path d="M443.931 163.591V197.739C449.952 195.441 455.566 192.998 460.685 190.438V163.562L443.931 163.591ZM400.155 210.217C394.604 211.382 389.028 212.419 383.43 213.329V180.81L400.155 180.839V210.217ZM339.654 218.449C334.157 218.827 328.572 219.147 322.929 219.38V188.315L339.654 188.344V218.449ZM279.153 219.38C273.564 219.147 267.979 218.836 262.399 218.449V188.344L279.153 188.315V219.38ZM218.623 213.329C213.025 212.419 207.449 211.381 201.898 210.217V180.81L218.623 180.839V213.329ZM158.122 197.739C152.101 195.441 146.487 192.998 141.368 190.438V163.591L158.122 163.562V197.739Z" fill="#C85929"/>
</svg>
