<svg width="55" height="52" viewBox="0 0 55 52" fill="none" xmlns="http://www.w3.org/2000/svg">
<g clip-path="url(#clip0_697_5464)">
<path d="M29.2559 12C28.7863 12 28.4062 12.38 28.4062 12.8496V24.8008C28.4062 25.2704 28.7863 25.6504 29.2559 25.6504H41.1504C41.62 25.6504 42 25.2704 42 24.8008C42 17.7733 36.2834 12 29.2559 12ZM30.8298 39.095L26.707 28.0449V16.3047C26.707 15.8351 26.327 15.4551 25.8574 15.4551C18.8299 15.4551 13 21.1717 13 28.1992C13 35.2267 18.8299 41 25.8574 41C27.3957 41 28.9016 40.727 30.3328 40.1894C30.7717 40.0243 30.9941 39.5347 30.8298 39.095Z" fill="#4E4FEB"/>
<path d="M41.1503 27.3496H29.2558C29.1185 27.3497 28.9832 27.383 28.8615 27.4468C28.7399 27.5105 28.6355 27.6027 28.5572 27.7155C28.479 27.8284 28.4294 27.9585 28.4125 28.0948C28.3956 28.231 28.4119 28.3693 28.4601 28.4979L32.6368 39.6924C32.6761 39.7968 32.7356 39.8925 32.8119 39.9739C32.8882 40.0554 32.9798 40.121 33.0815 40.167C33.1831 40.2134 33.2929 40.2392 33.4046 40.2429C33.5162 40.2466 33.6275 40.2281 33.732 40.1886C38.677 38.3275 41.9999 33.4761 41.9999 28.1992C41.9999 27.7296 41.6199 27.3496 41.1503 27.3496Z" fill="#4E4FEB"/>
</g>
<defs>
<clipPath id="clip0_697_5464">
<rect width="29" height="29" fill="white" transform="translate(13 12)"/>
</clipPath>
</defs>
</svg>
