<svg width="30" height="30" viewBox="0 0 30 30" fill="none" xmlns="http://www.w3.org/2000/svg">
<path d="M17.457 21.5059C18.8595 21.9862 20.098 22.2921 21.8773 22.8389C21.1937 31.4762 13.0262 28.046 17.457 21.5059ZM24.7493 13.5715C24.6572 10.9781 24.2004 7.57615 20.5619 8.10921C18.8563 8.55434 17.596 10.4276 17.0033 13.6594C16.6777 15.4364 16.867 17.9306 17.251 19.4258C17.6017 20.4795 17.4824 20.4147 17.8593 20.6148C19.3178 20.9434 20.7617 21.3071 22.2321 21.678C23.7258 20.6231 24.9527 15.0228 24.7493 13.5715ZM13.5206 13.3725C13.9043 11.8771 14.0936 9.38288 13.7682 7.60611C13.1759 4.37408 11.9155 2.50057 10.2095 2.05573C6.57101 1.52267 6.11422 4.92459 6.02212 7.51814C5.81879 8.96922 7.04576 14.5698 8.53965 15.6245C10.0099 15.2536 11.4537 14.8902 12.9127 14.5613C13.289 14.3614 13.1698 14.4261 13.5206 13.3725ZM8.894 16.7857C9.57732 25.4229 17.7448 21.9928 13.3141 15.4527C11.9116 15.9331 10.6733 16.239 8.894 16.7857Z" fill="#4E4FEB"/>
</svg>
