<svg width="30" height="30" viewBox="0 0 30 30" fill="none" xmlns="http://www.w3.org/2000/svg">
<g clip-path="url(#clip0_892_4327)">
<path fill-rule="evenodd" clip-rule="evenodd" d="M16.0857 6.52695C15.911 5.17529 14.7518 4.13086 13.3479 4.13086C11.9134 4.13086 10.7345 5.22126 10.6001 6.61569H10.5873V20.0686H10.5837C10.5861 20.0979 10.5873 20.1274 10.5873 20.1573C10.5873 20.7454 10.1089 21.2222 9.51873 21.2222C8.92859 21.2222 8.45012 20.7454 8.45012 20.1573C8.45012 20.1274 8.45136 20.0979 8.45377 20.0686H8.45012V13.7152C8.45012 12.1959 7.21409 10.9641 5.68954 10.9641C4.16499 10.9641 2.92897 12.1959 2.92897 13.7152C2.92897 13.7449 2.92941 13.7745 2.93039 13.804H2.92897V15.0464H0.524597V16.7325H4.2642C4.311 16.7326 4.35737 16.7235 4.40064 16.7057C4.44391 16.6879 4.48324 16.6618 4.51637 16.6289C4.54951 16.5959 4.5758 16.5568 4.59374 16.5137C4.61168 16.4706 4.62092 16.4244 4.62093 16.3778V13.804H4.62459C4.62215 13.7744 4.62093 13.7448 4.62093 13.7152C4.62093 13.1271 5.0994 12.6503 5.68954 12.6503C6.27968 12.6503 6.75815 13.1271 6.75815 13.7152C6.75815 13.7451 6.75691 13.7747 6.7545 13.804H6.75815V20.1935H6.75842C6.77783 21.6962 8.0062 22.9084 9.51873 22.9084C11.0433 22.9084 12.2793 21.6766 12.2793 20.1573C12.2793 20.0949 12.2773 20.0331 12.2731 19.9717H12.2793V6.97067H12.283C12.2805 6.94115 12.2793 6.91154 12.2793 6.88192C12.2793 6.29382 12.7578 5.817 13.3479 5.817C13.9381 5.817 14.4165 6.29382 14.4165 6.88192C14.4165 6.91183 14.4153 6.94138 14.4129 6.97067H14.4165V26.6718H16.1085V6.52695H16.0857ZM23.4079 18.1524C23.3423 19.6138 22.1327 20.7785 20.6501 20.7785C19.1255 20.7785 17.8895 19.5468 17.8895 18.0275C17.8895 18.0099 17.8897 17.9924 17.89 17.9749H17.8895V7.68062H19.5815V17.9387H19.5851C19.5827 17.968 19.5815 17.9976 19.5815 18.0275C19.5815 18.6156 20.0599 19.0924 20.6501 19.0924C21.2402 19.0924 21.7187 18.6156 21.7187 18.0275C21.7187 17.9976 21.7174 17.968 21.715 17.9387H21.7187V13.5377H21.7243C21.8161 12.101 23.0145 10.9641 24.4793 10.9641C25.9741 10.9641 27.1914 12.1482 27.2384 13.6265H27.2398V14.5139H29.3771V16.2H25.9046C25.8578 16.2001 25.8114 16.1909 25.7681 16.1731C25.7249 16.1552 25.6856 16.1291 25.6524 16.0961C25.6193 16.0631 25.593 16.024 25.5751 15.9809C25.5571 15.9378 25.5479 15.8916 25.5479 15.8449V13.804H25.5442C25.5466 13.7747 25.5479 13.7451 25.5479 13.7152C25.5479 13.1271 25.0694 12.6503 24.4793 12.6503C23.8891 12.6503 23.4107 13.1271 23.4107 13.7152C23.4107 13.7451 23.4119 13.7747 23.4143 13.804H23.4107V18.1524H23.4079Z" fill="white"/>
</g>
<defs>
<clipPath id="clip0_892_4327">
<rect width="28.8525" height="28.8525" fill="white" transform="translate(0.524597 0.524414)"/>
</clipPath>
</defs>
</svg>
