<svg width="18" height="17" viewBox="0 0 18 17" fill="none" xmlns="http://www.w3.org/2000/svg">
<path d="M11.5679 2.83366C11.5679 3.61605 10.9336 4.25033 10.1512 4.25033C9.3688 4.25033 8.73453 3.61605 8.73453 2.83366C8.73453 2.05126 9.3688 1.41699 10.1512 1.41699C10.9336 1.41699 11.5679 2.05126 11.5679 2.83366ZM9.59962 10.0575L11.4388 11.8722C11.5093 11.9418 11.5644 12.0255 11.6006 12.1177L12.5814 14.6165C12.7243 14.9807 12.545 15.3918 12.1808 15.5347C11.8167 15.6776 11.4056 15.4983 11.2627 15.1341L10.3368 12.7751L7.17453 9.65484C7.01983 9.50219 6.94375 9.28697 6.96819 9.07099L7.22149 6.83287C6.61094 7.43946 6.13997 8.29289 5.77904 9.42364C5.66011 9.79629 5.26157 10.002 4.88888 9.88303C4.51619 9.76406 4.31053 9.36552 4.42949 8.99287C5.09185 6.91763 6.19158 5.36432 8.03664 4.65199L8.04504 4.6488C8.51491 4.47419 9.0038 4.48825 9.43918 4.71336C9.85766 4.92969 10.1555 5.3033 10.3506 5.72203C10.4327 5.89833 10.5086 6.06309 10.5799 6.21776C10.7527 6.59239 10.8982 6.90803 11.0378 7.18541C11.2339 7.57514 11.3915 7.83311 11.5473 8.01459C11.6917 8.18278 11.8354 8.28613 12.0185 8.3576C12.2153 8.43449 12.4912 8.48743 12.9172 8.50022C13.3082 8.51194 13.6157 8.83845 13.604 9.22948C13.5922 9.62048 13.2657 9.92797 12.8747 9.91625C12.363 9.90091 11.9085 9.83553 11.5031 9.67722C11.0839 9.51353 10.7534 9.26476 10.4724 8.93733C10.2951 8.73082 10.1396 8.49533 9.99394 8.23899L9.59962 10.0575Z" fill="black" fill-opacity="0.6"/>
<path d="M6.96795 10.7031L8.14205 11.8292L7.6018 13.6523C7.55998 13.7934 7.4753 13.918 7.35945 14.0087L5.54094 15.4333C5.233 15.6745 4.78777 15.6204 4.54651 15.3125C4.30526 15.0045 4.35934 14.5593 4.66732 14.318L6.30779 13.0329L6.8021 11.3648L6.96795 10.7031Z" fill="black" fill-opacity="0.6"/>
</svg>
