<svg width="25" height="25" viewBox="0 0 25 25" fill="none" xmlns="http://www.w3.org/2000/svg">
<g clip-path="url(#clip0_3645_6726)">
<path d="M12.4097 12.834L13.1539 20.7497L13.5601 23.9083C13.6177 24.527 14.1373 25.0002 14.7592 25.0002H19.5C20.1219 25.0002 20.6415 24.5271 20.6992 23.9083L21.7301 12.834L17.0775 11.293L12.4097 12.834Z" fill="#73C3EE"/>
<path d="M17.0775 11.293L16.0698 11.6257L19.7181 12.834L18.6871 23.9084C18.6294 24.5271 18.1098 25.0002 17.4879 25.0002H19.5C20.1219 25.0002 20.6415 24.5271 20.6992 23.9083L21.7301 12.834L17.0775 11.293Z" fill="#59ACD9"/>
<path d="M22.1388 8.44434H11.9971L12.4097 12.8336H21.7302L22.1388 8.44434Z" fill="#C6E7F7"/>
<path d="M20.1269 8.44434L19.7183 12.8336H21.7303L22.1389 8.44434H20.1269Z" fill="#B5E0F5"/>
<path d="M10.4295 4.50402H9.88277V1.98682H6.37346V4.50402H5.82678C4.1971 4.50402 2.87598 5.82595 2.87598 7.45659V8.00095C2.87598 8.55814 3.32739 9.0098 3.88423 9.0098H12.3721C12.9289 9.0098 13.3803 8.55814 13.3803 8.00095V7.45659C13.3803 5.82595 12.0592 4.50402 10.4295 4.50402Z" fill="#C6E7F7"/>
<path d="M10.4294 4.50402H9.88268V1.98682H7.87061V4.50402H8.41734C10.047 4.50402 11.3681 5.82595 11.3681 7.45659V8.00095C11.3681 8.55814 10.9167 9.0098 10.3599 9.0098H12.372C12.9288 9.0098 13.3802 8.55814 13.3802 8.00095V7.45659C13.3802 5.82595 12.0591 4.50402 10.4294 4.50402Z" fill="#B5E0F5"/>
<path d="M12.3669 14.3818H3.88936C3.3297 14.3818 2.87598 13.9281 2.87598 13.3684V10.0183C2.87598 9.46133 3.32754 9.00977 3.88453 9.00977H12.3718C12.9287 9.00977 13.3803 9.46133 13.3803 10.0183V13.3684C13.3803 13.9281 12.9266 14.3818 12.3669 14.3818Z" fill="#73C3EE"/>
<path d="M12.3719 9.00977H10.3598C10.9168 9.00977 11.3684 9.46133 11.3684 10.0183V13.3684C11.3684 13.9281 10.9146 14.3818 10.355 14.3818H12.3671C12.9267 14.3818 13.3804 13.9281 13.3804 13.3684V10.0183C13.3804 9.46133 12.9289 9.00977 12.3719 9.00977Z" fill="#59ACD9"/>
<path d="M13.4171 17.4521C13.4171 16.8894 12.9746 16.4332 12.4287 16.4332C12.9746 16.4332 13.4171 15.977 13.4171 15.4144C13.4171 14.8517 12.9746 14.3955 12.4287 14.3955H3.84971C3.30383 14.3955 2.86133 14.8516 2.86133 15.4144C2.86133 15.9771 3.30383 16.4332 3.84971 16.4332C3.30383 16.4332 2.86133 16.8894 2.86133 17.4521C2.86133 18.0148 3.30383 18.471 3.84971 18.471C3.84971 18.471 2.87607 18.4846 2.87607 19.7451V22.0475C2.87607 23.6782 4.19719 25.0001 5.82687 25.0001H10.4296C12.0593 25.0001 13.3804 23.6782 13.3804 22.0475V19.7451C13.3804 18.5014 12.4287 18.471 12.4287 18.471C12.9746 18.471 13.4171 18.0148 13.4171 17.4521Z" fill="#C6E7F7"/>
<path d="M13.4171 17.4521C13.4171 16.8894 12.9746 16.4332 12.4287 16.4332C12.9746 16.4332 13.4171 15.977 13.4171 15.4144C13.4171 14.8516 12.9746 14.3955 12.4287 14.3955H10.4166C10.9625 14.3955 11.405 14.8516 11.405 15.4144C11.405 15.9771 10.9625 16.4332 10.4166 16.4332C10.9625 16.4332 11.405 16.8894 11.405 17.4521C11.405 18.0148 10.9625 18.471 10.4166 18.471C10.4166 18.471 11.3683 18.5014 11.3683 19.7451V22.0475C11.3683 23.6782 10.0472 25.0001 8.41748 25.0001H10.4296C12.0592 25.0001 13.3804 23.6782 13.3804 22.0475V19.7451C13.3804 18.5014 12.4287 18.471 12.4287 18.471C12.9746 18.471 13.4171 18.0148 13.4171 17.4521Z" fill="#B5E0F5"/>
<path d="M10.5259 2.76388H5.73094C5.66438 2.76388 5.60055 2.73744 5.55348 2.69038C5.50642 2.64332 5.47998 2.57949 5.47998 2.51293V0.818511C5.47998 0.366449 5.84643 0 6.29844 0H9.95835C10.4104 0 10.7769 0.366449 10.7769 0.818511V2.51288C10.7769 2.54584 10.7704 2.57848 10.7578 2.60894C10.7452 2.63939 10.7267 2.66707 10.7034 2.69038C10.6801 2.71369 10.6524 2.73218 10.622 2.74479C10.5915 2.7574 10.5589 2.76389 10.5259 2.76388Z" fill="#73C3EE"/>
<path d="M9.95836 0H7.94629C8.39835 0 8.7648 0.366449 8.7648 0.818511V2.51288C8.7648 2.57944 8.73836 2.64328 8.6913 2.69035C8.64424 2.73742 8.58041 2.76387 8.51384 2.76388H10.5259C10.5589 2.76388 10.5915 2.75739 10.622 2.74478C10.6524 2.73216 10.6801 2.71367 10.7034 2.69036C10.7267 2.66705 10.7452 2.63938 10.7578 2.60893C10.7704 2.57848 10.7769 2.54584 10.7769 2.51288V0.818511C10.7769 0.366449 10.4104 0 9.95836 0Z" fill="#59ACD9"/>
</g>
<defs>
<clipPath id="clip0_3645_6726">
<rect width="25" height="25" fill="white"/>
</clipPath>
</defs>
</svg>
