<svg width="16" height="16" viewBox="0 0 16 16" fill="none" xmlns="http://www.w3.org/2000/svg">
<g clip-path="url(#clip0_4205_6633)">
<path d="M15.5 4.5C15.5 5.5 15 15 14 15.5C13 16 3 16 2 15.5C1 15 0.5 5.5 0.5 4.5C0.5 3.5 2.5 0.5 8 0.5C13.5 0.5 15.5 3.5 15.5 4.5ZM11.5 7.5L11.915 4.19C10.7731 3.38035 9.39936 2.9628 8 3C6.60043 2.96124 5.22625 3.37893 4.085 4.19L4.5 7.5H11.5Z" fill="#C2EFB3"/>
<path d="M4.49996 7.50052L4.08496 4.19052C5.22622 3.37945 6.60039 2.96176 7.99996 3.00052C9.39932 2.96332 10.773 3.38087 11.915 4.19052L11.5 7.50052H4.49996Z" fill="#F6F9FF"/>
<path d="M12.2108 3.78674C10.9833 2.91384 9.50598 2.46243 8.00028 2.50024C6.49474 2.46699 5.01836 2.91833 3.78878 3.78774C3.71716 3.8404 3.66088 3.9112 3.62572 3.99284C3.59057 4.07449 3.57782 4.16403 3.58878 4.25224L4.00378 7.56274C4.01901 7.68364 4.07787 7.79482 4.1693 7.87538C4.26072 7.95594 4.37842 8.00034 4.50028 8.00024H11.5003C11.622 8.00022 11.7396 7.95577 11.8309 7.87522C11.9223 7.79467 11.9811 7.68356 11.9963 7.56274L12.4113 4.25224C12.4224 4.16382 12.4096 4.07405 12.3744 3.9922C12.3391 3.91036 12.2826 3.83943 12.2108 3.78674ZM11.0588 7.00024H8.80878L9.45028 5.72374C9.50955 5.60506 9.51926 5.46769 9.47725 5.34185C9.43524 5.21601 9.34496 5.11202 9.22628 5.05274C9.10759 4.99347 8.97022 4.98376 8.84439 5.02577C8.71855 5.06778 8.61455 5.15806 8.55528 5.27674L7.69128 7.00024H4.94128L4.61878 4.42774C5.62991 3.79208 6.80634 3.4694 8.00028 3.50024C9.19417 3.47095 10.3703 3.79388 11.3818 4.42874L11.0588 7.00024Z" fill="#4E4FEB"/>
</g>
<defs>
<clipPath id="clip0_4205_6633">
<rect width="16" height="16" fill="white"/>
</clipPath>
</defs>
</svg>
