<svg width="206" height="59" viewBox="0 0 206 59" fill="none" xmlns="http://www.w3.org/2000/svg">
<g filter="url(#filter0_i_1121_4902)">
<path d="M39.24 12.12C38.4933 13.24 37.72 14.3333 36.92 15.4C36.12 16.4667 35.3467 17.5333 34.6 18.6C31.24 23.4 27.88 28.1733 24.52 32.92C21.2133 37.6667 17.9067 42.4667 14.6 47.32C15.4 47.32 16.0133 47.32 16.44 47.32C16.8667 47.32 17.2133 47.32 17.48 47.32C17.8 47.32 18.1467 47.32 18.52 47.32C18.8933 47.32 19.4533 47.3467 20.2 47.4C20.9467 47.4 21.96 47.4 23.24 47.4C24.5733 47.4 26.3333 47.4 28.52 47.4C29.9067 47.4 31.2667 47.4 32.6 47.4C33.9867 47.4 35.3733 47.4533 36.76 47.56C37.0267 47.6133 37.32 47.6667 37.64 47.72C37.96 47.72 38.2533 47.7733 38.52 47.88L39 48.12C39 48.12 39.16 48.1733 39.48 48.28C40.12 48.6533 40.6533 49.08 41.08 49.56C41.8267 50.6267 42.04 51.8267 41.72 53.16C41.6667 53.5333 41.5333 53.88 41.32 54.2C41.16 54.4667 40.9733 54.7067 40.76 54.92C40.3333 55.3467 39.8267 55.64 39.24 55.8C38.6533 56.12 38.04 56.3067 37.4 56.36C37.1333 56.4133 36.8667 56.4667 36.6 56.52C36.3867 56.52 36.1467 56.52 35.88 56.52H6.84C6.52 56.52 6.2 56.52 5.88 56.52C5.56 56.52 5.24 56.4933 4.92 56.44C4.76 56.3867 4.6 56.36 4.44 56.36C4.33333 56.36 4.22667 56.3333 4.12 56.28C3.90667 56.2267 3.69333 56.2 3.48 56.2C3.32 56.1467 3.10667 56.0933 2.84 56.04C2.25333 55.72 1.8 55.4267 1.48 55.16C0.84 54.68 0.493334 54.1733 0.44 53.64V53.56C0.333333 53.2933 0.253333 53.0533 0.2 52.84C0.2 52.6267 0.226667 52.36 0.28 52.04C0.28 51.9867 0.253333 51.96 0.2 51.96C0.2 51.9067 0.2 51.8267 0.2 51.72C0.2 51.4 0.253334 51.1067 0.36 50.84C0.466667 50.52 0.573334 50.2 0.68 49.88C0.786667 49.72 0.866667 49.56 0.92 49.4C1.02667 49.1867 1.16 49 1.32 48.84C1.42667 48.5733 1.56 48.3067 1.72 48.04C1.93333 47.7733 2.09333 47.5067 2.2 47.24C2.30667 47.0267 2.41333 46.8133 2.52 46.6C2.68 46.3333 2.81333 46.12 2.92 45.96C3.13333 45.7467 3.29333 45.56 3.4 45.4C3.56 45.1867 3.69333 44.9733 3.8 44.76L7.96 38.92L15.4 28.12C16.5733 26.5733 17.72 24.9733 18.84 23.32C20.0133 21.6133 21.2133 19.8533 22.44 18.04C23.3467 16.6533 24.1733 15.4533 24.92 14.44C25.6667 13.3733 26.4667 12.2267 27.32 11C25.4533 11 23.6933 11 22.04 11C20.44 11 18.84 11 17.24 11C15.64 10.9467 13.96 10.92 12.2 10.92C10.4933 10.8667 8.6 10.8133 6.52 10.76C5.77333 10.7067 4.89333 10.6 3.88 10.44C2.92 10.2267 2.12 9.82667 1.48 9.24C0.893333 8.70666 0.546667 8.14666 0.44 7.56C0.28 7.02666 0.2 6.38667 0.2 5.64C0.2 4.78666 0.44 4.04 0.92 3.4C1.45333 2.70666 2.12 2.2 2.92 1.88C4.04 1.45333 5.13333 1.24 6.2 1.24C6.78667 1.18667 7.37333 1.16 7.96 1.16C8.54667 1.16 9.10667 1.10666 9.64 0.999996H10.04C11.5867 0.946664 13.88 0.946664 16.92 0.999996C20.0133 0.999996 23.88 0.999996 28.52 0.999996C29.1067 0.999996 29.72 0.999996 30.36 0.999996C31 0.946664 31.6133 0.946664 32.2 0.999996C33.4267 1.10666 34.7067 1.13333 36.04 1.08C37.4267 1.02666 38.68 1.32 39.8 1.96C40.12 2.12 40.4133 2.30666 40.68 2.52C40.9467 2.73333 41.24 2.92 41.56 3.08C42.2 3.66666 42.4933 4.36 42.44 5.16C42.44 5.96 42.2533 6.78666 41.88 7.64C41.56 8.49333 41.1333 9.32 40.6 10.12C40.0667 10.92 39.6133 11.5867 39.24 12.12ZM57.43 26.68C57.43 28.1733 57.43 29.8533 57.43 31.72C57.4833 33.5867 57.51 35.5333 57.51 37.56C57.51 39.5333 57.51 41.5067 57.51 43.48C57.51 45.4 57.4833 47.1867 57.43 48.84C57.3767 49.64 57.2967 50.52 57.19 51.48C57.0833 52.3867 56.87 53.24 56.55 54.04C56.23 54.84 55.7233 55.5067 55.03 56.04C54.39 56.52 53.51 56.7333 52.39 56.68C50.7367 56.5733 49.5367 55.8533 48.79 54.52C48.0967 53.1867 47.6967 51.32 47.59 48.92C47.59 47.6933 47.5633 46.28 47.51 44.68C47.51 43.08 47.4833 41.4533 47.43 39.8C47.43 38.1467 47.43 36.5467 47.43 35C47.43 33.4 47.43 31.96 47.43 30.68C47.43 29.9333 47.4033 29.0267 47.35 27.96C47.35 26.8933 47.3767 25.8 47.43 24.68C47.4833 23.56 47.6167 22.4933 47.83 21.48C48.0433 20.4133 48.39 19.5333 48.87 18.84C49.2433 18.4133 49.7767 18.0933 50.47 17.88C51.1633 17.6133 51.8833 17.48 52.63 17.48C53.43 17.48 54.1767 17.6133 54.87 17.88C55.6167 18.1467 56.15 18.52 56.47 19C56.6833 19.32 56.8433 19.7733 56.95 20.36C57.0567 20.9467 57.1367 21.6133 57.19 22.36C57.2967 23.0533 57.35 23.8 57.35 24.6C57.4033 25.3467 57.43 26.04 57.43 26.68ZM54.39 10.52C52.7367 10.9467 51.35 10.7867 50.23 10.04C49.1633 9.24 48.4967 8.06666 48.23 6.52C48.0167 5.4 48.0967 4.41333 48.47 3.56C48.8433 2.70666 49.4033 2.06667 50.15 1.64C50.8967 1.16 51.75 0.946664 52.71 0.999996C53.67 1.05333 54.63 1.42666 55.59 2.12C56.4967 2.76 57.1367 3.50666 57.51 4.36C57.9367 5.21333 58.07 6.04 57.91 6.84C57.8033 7.64 57.4567 8.38666 56.87 9.08C56.2833 9.72 55.4567 10.2 54.39 10.52ZM99.8194 50.92C99.926 51.1867 99.9794 51.5867 99.9794 52.12C99.9794 52.6 99.9794 53 99.9794 53.32C99.9794 53.7467 99.8994 54.1467 99.7394 54.52C99.5794 54.8933 99.366 55.24 99.0994 55.56C98.6194 56.2 97.926 56.68 97.0194 57C95.7394 57.4267 94.5394 57.64 93.4194 57.64C92.8327 57.6933 92.2194 57.72 91.5794 57.72C90.9394 57.72 90.2994 57.7733 89.6594 57.88H89.3394C85.2327 57.9333 80.9927 57.9333 76.6194 57.88C75.5527 57.8267 74.3527 57.8267 73.0194 57.88C71.686 57.9867 70.3794 57.96 69.0994 57.8C67.8194 57.6933 66.646 57.4 65.5794 56.92C64.566 56.3867 63.846 55.56 63.4194 54.44C63.3127 54.1733 63.2327 53.9333 63.1794 53.72C63.126 53.4533 63.0994 53.1867 63.0994 52.92C62.886 51.1067 62.806 49.32 62.8594 47.56C62.9127 45.8 62.9394 44.0667 62.9394 42.36L63.0994 30.76V20.04C63.0994 18.12 63.0994 16.4133 63.0994 14.92C63.1527 13.4267 63.206 11.7733 63.2594 9.96V9.56C63.3127 9.02666 63.3394 8.49333 63.3394 7.96C63.3927 7.42666 63.4194 6.89333 63.4194 6.36C63.526 5.13333 63.8194 4.09333 64.2994 3.24C64.6194 2.44 65.1794 1.8 65.9794 1.32C66.6727 0.839997 67.4994 0.599997 68.4594 0.599997C68.8327 0.599997 69.1794 0.626663 69.4994 0.679996C69.8727 0.679996 70.2194 0.706663 70.5394 0.759999C70.8594 0.813332 71.1527 0.919997 71.4194 1.08C71.7394 1.24 72.0594 1.45333 72.3794 1.72C72.6994 2.09333 72.9927 2.54667 73.2594 3.08C73.4727 3.66666 73.606 4.25333 73.6594 4.84C73.7127 5.21333 73.766 5.56 73.8194 5.88C73.8727 6.2 73.8994 6.52 73.8994 6.84C73.7927 7.16 73.7394 7.48 73.7394 7.8C73.7394 8.12 73.7394 8.41333 73.7394 8.68V10.12L73.4194 47.8L89.2594 47.96H93.0194C93.3394 47.96 93.686 47.9867 94.0594 48.04C94.4327 48.04 94.806 48.0667 95.1794 48.12C95.606 48.1733 95.9794 48.2267 96.2994 48.28C96.6194 48.3333 96.9394 48.4133 97.2594 48.52C97.846 48.68 98.326 48.9467 98.6994 49.32C99.286 49.8533 99.6594 50.3867 99.8194 50.92ZM136.796 37.96C136.689 39.72 136.582 41.5067 136.476 43.32C136.369 45.08 136.076 46.7867 135.596 48.44C135.169 50.0933 134.476 51.5867 133.516 52.92C132.609 54.2533 131.302 55.32 129.596 56.12C128.102 56.8667 126.502 57.3733 124.796 57.64C123.089 57.96 121.382 58.0933 119.676 58.04C117.969 57.9867 116.316 57.72 114.716 57.24C113.116 56.8133 111.676 56.2 110.396 55.4C109.116 54.6 108.076 53.56 107.276 52.28C106.476 51 105.836 49.6133 105.356 48.12C104.929 46.6267 104.636 45.08 104.476 43.48C104.316 41.88 104.209 40.3867 104.156 39C103.942 35.32 103.942 31.6933 104.156 28.12C104.156 27.4267 104.156 26.6533 104.156 25.8C104.156 24.8933 104.209 24.0133 104.316 23.16C104.476 22.3067 104.716 21.5333 105.036 20.84C105.356 20.0933 105.889 19.5333 106.636 19.16C108.236 18.3067 109.702 18.2533 111.036 19C112.422 19.7467 113.249 21.2933 113.516 23.64C113.676 24.8667 113.729 26.2267 113.676 27.72C113.676 29.2133 113.729 30.5733 113.836 31.8C113.889 33.6133 113.942 35.5867 113.996 37.72C114.049 39.8 114.342 41.6667 114.876 43.32C115.462 44.9733 116.396 46.2267 117.676 47.08C119.009 47.88 120.982 47.9067 123.596 47.16C124.822 46.7867 125.622 45.8533 125.996 44.36C126.422 42.8667 126.636 40.6533 126.636 37.72C126.636 36.44 126.609 35.0267 126.556 33.48C126.502 31.9333 126.476 30.4133 126.476 28.92C126.476 27.3733 126.502 25.96 126.556 24.68C126.662 23.3467 126.822 22.3333 127.036 21.64C127.302 20.68 127.862 19.96 128.716 19.48C129.569 19 130.476 18.76 131.436 18.76C132.396 18.7067 133.302 18.8933 134.156 19.32C135.009 19.7467 135.596 20.44 135.916 21.4C136.236 22.2533 136.449 23.3467 136.556 24.68C136.716 25.96 136.822 27.3733 136.876 28.92C136.929 30.4133 136.929 31.96 136.876 33.56C136.876 35.1067 136.849 36.5733 136.796 37.96ZM171.529 26.2C171.955 26.9467 172.169 27.7467 172.169 28.6C172.222 29.4533 172.035 30.2533 171.609 31C171.129 31.96 170.435 32.6267 169.529 33C168.675 33.32 167.715 33.3467 166.649 33.08C166.169 32.9733 165.742 32.7867 165.369 32.52C164.995 32.2533 164.595 31.9867 164.169 31.72C163.795 31.4 163.342 31.1067 162.809 30.84C162.329 30.5733 161.689 30.3867 160.889 30.28C160.089 30.1733 159.209 30.1733 158.249 30.28C157.342 30.3867 156.515 30.6 155.769 30.92C154.595 31.5067 153.662 32.4133 152.969 33.64C152.275 34.8133 151.822 36.0933 151.609 37.48C151.395 38.8133 151.422 40.1733 151.689 41.56C152.009 42.9467 152.595 44.12 153.449 45.08C154.089 45.8267 154.915 46.44 155.929 46.92C156.995 47.4 158.009 47.6933 158.969 47.8C159.875 47.9067 160.782 47.9067 161.689 47.8C162.595 47.64 163.475 47.4267 164.329 47.16C164.969 46.8933 165.689 46.5467 166.489 46.12C167.289 45.64 168.062 45.3467 168.809 45.24C169.769 45.24 170.515 45.5067 171.049 46.04C171.582 46.52 171.955 47.1333 172.169 47.88C172.382 48.5733 172.409 49.32 172.249 50.12C172.142 50.92 171.849 51.6133 171.369 52.2C170.729 53 169.822 53.7733 168.649 54.52C167.475 55.2133 166.355 55.72 165.289 56.04C164.009 56.4667 162.569 56.7067 160.969 56.76C159.422 56.8133 157.955 56.76 156.569 56.6C155.929 56.4933 155.262 56.36 154.569 56.2C153.875 56.04 153.209 55.8533 152.569 55.64C150.222 54.7867 148.249 53.5867 146.649 52.04C145.102 50.44 143.902 48.6533 143.049 46.68C142.249 44.7067 141.795 42.6 141.689 40.36C141.582 38.12 141.849 35.9067 142.489 33.72C143.075 31.64 143.795 29.88 144.649 28.44C145.555 27 146.595 25.8267 147.769 24.92C148.995 23.96 150.355 23.2133 151.849 22.68C153.342 22.0933 154.995 21.5867 156.809 21.16C158.675 20.7867 160.649 20.7867 162.729 21.16C164.809 21.5333 166.675 22.2267 168.329 23.24C169.609 23.9333 170.675 24.92 171.529 26.2ZM193.042 38.6C194.215 39.8267 195.069 40.7333 195.602 41.32C196.189 41.8533 196.589 42.2533 196.802 42.52C197.069 42.7867 197.255 42.9467 197.362 43C197.469 43.0533 197.655 43.2133 197.922 43.48C198.189 43.7467 198.615 44.1733 199.202 44.76C199.789 45.2933 200.669 46.1733 201.842 47.4C202.802 48.36 203.575 49.48 204.162 50.76C204.802 51.9867 204.749 53.32 204.002 54.76C203.575 55.5067 203.095 56.04 202.562 56.36C202.029 56.6267 201.442 56.7333 200.802 56.68C200.215 56.6267 199.575 56.44 198.882 56.12C198.242 55.8 197.602 55.4 196.962 54.92C195.735 54.0133 194.562 52.9733 193.442 51.8C192.322 50.5733 191.415 49.64 190.722 49C190.242 48.52 189.949 48.2 189.842 48.04C189.735 47.9333 189.629 47.8533 189.522 47.8C189.415 47.6933 189.309 47.5867 189.202 47.48C188.829 47.1067 188.429 46.7333 188.002 46.36C187.575 45.9867 187.149 45.5867 186.722 45.16V48.28C186.722 48.8667 186.749 49.2933 186.802 49.56C186.802 50.0933 186.775 50.4933 186.722 50.76C186.562 51.3467 186.482 51.9067 186.482 52.44C186.429 52.7067 186.375 52.9733 186.322 53.24C186.269 53.4533 186.189 53.6933 186.082 53.96C186.029 54.0667 185.975 54.1467 185.922 54.2C185.922 54.2533 185.922 54.3333 185.922 54.44C185.869 54.5467 185.815 54.6267 185.762 54.68C185.762 54.7333 185.735 54.8133 185.682 54.92C185.415 55.4533 184.989 55.96 184.402 56.44C183.389 57.0267 182.135 57.1867 180.642 56.92C179.842 56.76 179.229 56.4667 178.802 56.04C178.322 55.72 178.002 55.2667 177.842 54.68C177.735 54.4133 177.629 54.1467 177.522 53.88C177.469 53.56 177.389 53.2667 177.282 53C177.175 52.7333 177.122 52.4933 177.122 52.28C177.122 52.0133 177.122 51.8 177.122 51.64V6.12C177.122 5.8 177.122 5.48 177.122 5.16C177.122 4.84 177.149 4.52 177.202 4.2C177.255 3.88 177.309 3.58667 177.362 3.32C177.469 3 177.575 2.70666 177.682 2.44C177.895 1.90666 178.162 1.48 178.482 1.16C178.749 0.893332 179.015 0.706665 179.282 0.599997C179.602 0.439999 179.895 0.306665 180.162 0.199997C180.429 0.146664 180.722 0.119998 181.042 0.119998C181.415 0.0666653 181.762 0.039999 182.082 0.039999C182.829 0.039999 183.575 0.253331 184.322 0.679996C185.015 1.16 185.522 1.77333 185.842 2.52C186.269 3.53333 186.482 4.52 186.482 5.48C186.535 6.01333 186.589 6.84 186.642 7.96C186.695 9.02666 186.722 9.82666 186.722 10.36V10.68C186.775 12.44 186.802 14.12 186.802 15.72C186.802 17.32 186.802 19.0533 186.802 20.92C186.749 22.7867 186.722 24.5733 186.722 26.28C186.722 27.9333 186.722 29.5867 186.722 31.24V32.12C187.149 31.6933 187.575 31.2933 188.002 30.92C188.429 30.5467 188.829 30.1467 189.202 29.72C189.415 29.56 189.629 29.3733 189.842 29.16L190.722 28.28C191.415 27.5867 192.322 26.6533 193.442 25.48C194.562 24.2533 195.735 23.1867 196.962 22.28C198.295 21.32 199.575 20.7333 200.802 20.52C202.082 20.3067 203.149 20.9467 204.002 22.44C204.749 23.88 204.802 25.24 204.162 26.52C203.575 27.7467 202.802 28.8933 201.842 29.96C200.669 31.1867 199.789 32.0933 199.202 32.68C198.615 33.2133 198.189 33.6133 197.922 33.88C197.655 34.0933 197.469 34.2267 197.362 34.28C197.255 34.3333 197.069 34.4933 196.802 34.76C196.589 34.9733 196.189 35.3733 195.602 35.96C195.069 36.4933 194.215 37.3733 193.042 38.6Z" fill="white"/>
</g>
<defs>
<filter id="filter0_i_1121_4902" x="0.199951" y="-2.96001" width="207.922" height="61.08" filterUnits="userSpaceOnUse" color-interpolation-filters="sRGB">
<feFlood flood-opacity="0" result="BackgroundImageFix"/>
<feBlend mode="normal" in="SourceGraphic" in2="BackgroundImageFix" result="shape"/>
<feColorMatrix in="SourceAlpha" type="matrix" values="0 0 0 0 0 0 0 0 0 0 0 0 0 0 0 0 0 0 127 0" result="hardAlpha"/>
<feOffset dx="4" dy="-3"/>
<feGaussianBlur stdDeviation="1.5"/>
<feComposite in2="hardAlpha" operator="arithmetic" k2="-1" k3="1"/>
<feColorMatrix type="matrix" values="0 0 0 0 0 0 0 0 0 0 0 0 0 0 0 0 0 0 0.25 0"/>
<feBlend mode="normal" in2="shape" result="effect1_innerShadow_1121_4902"/>
</filter>
</defs>
</svg>
